STARTFONT 2.1
FONT -FontForge-Orange Kid-Book-R-Normal--32-310-75-75-P-129-ISO10646-1
SIZE 31 75 75
FONTBOUNDINGBOX 31 38 -5 -7
COMMENT "Generated by fontforge, http://fontforge.sourceforge.net"
COMMENT "(c) 1999-2009 Ray Larabie. See attached license agreement for more information. If EULA is missing, visit www.larabiefonts.com for an updated version of this font."
STARTPROPERTIES 39
FOUNDRY "FontForge"
FAMILY_NAME "Orange Kid"
WEIGHT_NAME "Book"
SLANT "R"
SETWIDTH_NAME "Normal"
ADD_STYLE_NAME ""
PIXEL_SIZE 32
POINT_SIZE 310
RESOLUTION_X 75
RESOLUTION_Y 75
SPACING "P"
AVERAGE_WIDTH 129
CHARSET_REGISTRY "ISO10646"
CHARSET_ENCODING "1"
FONTNAME_REGISTRY ""
CHARSET_COLLECTIONS "ISO8859-2 ISO8859-7 ISO8859-9 ISO8859-4 ISO10646-1"
FONT_NAME "OrangeKid-Regular"
FACE_NAME "OrangeKid-Regular"
COPYRIGHT "(c) 1999-2009 Ray Larabie. See attached license agreement for more information. If EULA is missing, visit www.larabiefonts.com for an updated version of this font."
FONT_VERSION "OTF 4.000;PS 001.001;Core 1.0.29"
FONT_ASCENT 25
FONT_DESCENT 7
UNDERLINE_POSITION -5
UNDERLINE_THICKNESS 1
X_HEIGHT 13
CAP_HEIGHT 18
RAW_ASCENT 778
RAW_DESCENT 222
NORM_SPACE 6
RELATIVE_WEIGHT 40
RELATIVE_SETWIDTH 50
SUPERSCRIPT_X 0
SUPERSCRIPT_Y 9
SUPERSCRIPT_SIZE 9
SUBSCRIPT_X 0
SUBSCRIPT_Y 0
SUBSCRIPT_SIZE 9
AVG_LOWERCASE_WIDTH 120
AVG_UPPERCASE_WIDTH 143
ENDPROPERTIES
CHARS 561
STARTCHAR uni0017
ENCODING 23
SWIDTH 184 0
DWIDTH 6 0
BBX 1 1 0 0
BITMAP
00
ENDCHAR
STARTCHAR space
ENCODING 32
SWIDTH 184 0
DWIDTH 6 0
BBX 1 1 0 0
BITMAP
00
ENDCHAR
STARTCHAR exclam
ENCODING 33
SWIDTH 186 0
DWIDTH 6 0
BBX 2 19 2 0
BITMAP
C0
C0
C0
C0
C0
C0
C0
C0
C0
C0
C0
C0
C0
C0
00
00
C0
C0
C0
ENDCHAR
STARTCHAR quotedbl
ENCODING 34
SWIDTH 284 0
DWIDTH 9 0
BBX 7 8 1 14
BITMAP
E6
E6
E6
E6
E6
E6
E6
E6
ENDCHAR
STARTCHAR numbersign
ENCODING 35
SWIDTH 456 0
DWIDTH 15 0
BBX 12 13 1 4
BITMAP
19C0
19C0
19C0
FFF0
FFF0
19C0
19C0
FFF0
FFF0
FFF0
19C0
19C0
01C0
ENDCHAR
STARTCHAR dollar
ENCODING 36
SWIDTH 456 0
DWIDTH 15 0
BBX 12 24 1 -5
BITMAP
0700
0700
1FC0
1FC0
1FC0
E730
E730
1F00
1F00
1FC0
07C0
07C0
E730
E730
E730
E730
FFF0
1FC0
1FC0
0700
0700
0700
0700
0700
ENDCHAR
STARTCHAR percent
ENCODING 37
SWIDTH 752 0
DWIDTH 24 0
BBX 22 17 1 0
BITMAP
1F0380
1F0380
1F0380
E1CE00
E1CE00
E1CE00
E1CE00
FFFFE0
1F33E0
1F33E0
01CE1C
01CE1C
01CE1C
01CE1C
07CFFC
0703E0
0703E0
ENDCHAR
STARTCHAR ampersand
ENCODING 38
SWIDTH 530 0
DWIDTH 17 0
BBX 15 19 1 0
BITMAP
1F00
1F00
E1C0
E1C0
E1C0
E1C0
E1C0
1F0E
1F0E
FFCE
E1CE
E1CE
E030
E030
E1CE
E1CE
FFCE
1F0E
1F0E
ENDCHAR
STARTCHAR quotesingle
ENCODING 39
SWIDTH 142 0
DWIDTH 5 0
BBX 3 8 1 14
BITMAP
E0
E0
E0
E0
E0
E0
E0
E0
ENDCHAR
STARTCHAR parenleft
ENCODING 40
SWIDTH 326 0
DWIDTH 10 0
BBX 7 29 2 -5
BITMAP
06
06
3E
38
38
38
38
C0
C0
C0
C0
C0
C0
C0
C0
C0
C0
C0
C0
C0
C0
F8
38
38
38
38
06
06
06
ENDCHAR
STARTCHAR parenright
ENCODING 41
SWIDTH 341 0
DWIDTH 11 0
BBX 8 29 1 -5
BITMAP
E0
E0
F8
18
18
18
18
07
07
07
07
07
07
07
07
07
07
07
07
07
07
1F
18
18
18
18
E0
E0
E0
ENDCHAR
STARTCHAR asterisk
ENCODING 42
SWIDTH 308 0
DWIDTH 10 0
BBX 8 7 1 5
BITMAP
E7
E7
FF
18
18
E7
E7
ENDCHAR
STARTCHAR plus
ENCODING 43
SWIDTH 456 0
DWIDTH 15 0
BBX 12 12 1 2
BITMAP
0700
0700
0700
0700
FFF0
FFF0
FFF0
0700
0700
0700
0700
0700
ENDCHAR
STARTCHAR comma
ENCODING 44
SWIDTH 234 0
DWIDTH 7 0
BBX 5 8 1 -5
BITMAP
18
18
18
18
18
E0
E0
E0
ENDCHAR
STARTCHAR hyphen
ENCODING 45
SWIDTH 279 0
DWIDTH 9 0
BBX 7 3 1 7
BITMAP
FE
FE
FE
ENDCHAR
STARTCHAR period
ENCODING 46
SWIDTH 160 0
DWIDTH 5 0
BBX 3 3 1 0
BITMAP
E0
E0
E0
ENDCHAR
STARTCHAR slash
ENCODING 47
SWIDTH 382 0
DWIDTH 12 0
BBX 10 19 1 0
BITMAP
01C0
01C0
01C0
01C0
01C0
0700
0700
0700
0700
1F00
1800
1800
1800
1800
E000
E000
E000
E000
E000
ENDCHAR
STARTCHAR zero
ENCODING 48
SWIDTH 382 0
DWIDTH 12 0
BBX 10 19 1 0
BITMAP
1F00
1F00
E1C0
E1C0
E1C0
E1C0
E1C0
E1C0
E1C0
E1C0
E1C0
E1C0
E1C0
E1C0
E1C0
E1C0
FFC0
1F00
1F00
ENDCHAR
STARTCHAR one
ENCODING 49
SWIDTH 234 0
DWIDTH 7 0
BBX 5 19 1 0
BITMAP
18
18
F8
F8
F8
18
18
18
18
18
18
18
18
18
18
18
18
18
18
ENDCHAR
STARTCHAR two
ENCODING 50
SWIDTH 382 0
DWIDTH 12 0
BBX 10 19 1 0
BITMAP
1F00
1F00
E1C0
E1C0
E1C0
01C0
01C0
0700
0700
1F00
1800
1800
1800
1800
E000
E000
FFC0
FFC0
FFC0
ENDCHAR
STARTCHAR three
ENCODING 51
SWIDTH 382 0
DWIDTH 12 0
BBX 10 19 1 0
BITMAP
1F00
1F00
E1C0
E1C0
E1C0
01C0
01C0
1F00
1F00
1FC0
01C0
01C0
01C0
01C0
E1C0
E1C0
FFC0
1F00
1F00
ENDCHAR
STARTCHAR four
ENCODING 52
SWIDTH 434 0
DWIDTH 14 0
BBX 12 19 1 0
BITMAP
01C0
01C0
07C0
07C0
07C0
39C0
39C0
39C0
39C0
F9C0
E1C0
E1C0
FFF0
FFF0
01C0
01C0
01C0
01C0
01C0
ENDCHAR
STARTCHAR five
ENCODING 53
SWIDTH 382 0
DWIDTH 12 0
BBX 10 19 1 0
BITMAP
FFC0
FFC0
E000
E000
E000
FF00
FF00
01C0
01C0
01C0
01C0
01C0
E1C0
E1C0
E1C0
E1C0
FFC0
1F00
1F00
ENDCHAR
STARTCHAR six
ENCODING 54
SWIDTH 382 0
DWIDTH 12 0
BBX 10 19 1 0
BITMAP
1F00
1F00
E000
E000
E000
FF00
FF00
E1C0
E1C0
E1C0
E1C0
E1C0
E1C0
E1C0
E1C0
E1C0
FFC0
1F00
1F00
ENDCHAR
STARTCHAR seven
ENCODING 55
SWIDTH 382 0
DWIDTH 12 0
BBX 10 19 1 0
BITMAP
FFC0
FFC0
01C0
01C0
01C0
0700
0700
0700
0700
0700
0700
0700
1800
1800
1800
1800
1800
1800
1800
ENDCHAR
STARTCHAR eight
ENCODING 56
SWIDTH 382 0
DWIDTH 12 0
BBX 10 19 1 0
BITMAP
1F00
1F00
E1C0
E1C0
E1C0
E1C0
E1C0
1F00
1F00
FFC0
E1C0
E1C0
E1C0
E1C0
E1C0
E1C0
FFC0
1F00
1F00
ENDCHAR
STARTCHAR nine
ENCODING 57
SWIDTH 382 0
DWIDTH 12 0
BBX 10 19 1 0
BITMAP
1F00
1F00
E1C0
E1C0
E1C0
E1C0
E1C0
E1C0
E1C0
FFC0
1FC0
1FC0
01C0
01C0
E1C0
E1C0
FFC0
1F00
1F00
ENDCHAR
STARTCHAR colon
ENCODING 58
SWIDTH 160 0
DWIDTH 5 0
BBX 3 12 1 0
BITMAP
E0
E0
E0
00
00
00
00
00
00
E0
E0
E0
ENDCHAR
STARTCHAR semicolon
ENCODING 59
SWIDTH 234 0
DWIDTH 7 0
BBX 5 17 1 -5
BITMAP
18
18
18
00
00
00
00
00
00
18
18
18
18
18
E0
E0
E0
ENDCHAR
STARTCHAR less
ENCODING 60
SWIDTH 308 0
DWIDTH 10 0
BBX 8 12 1 2
BITMAP
07
07
18
18
F8
E0
E0
18
18
07
07
07
ENDCHAR
STARTCHAR equal
ENCODING 61
SWIDTH 456 0
DWIDTH 15 0
BBX 12 7 1 5
BITMAP
FFF0
FFF0
FFF0
0000
0000
FFF0
FFF0
ENDCHAR
STARTCHAR greater
ENCODING 62
SWIDTH 308 0
DWIDTH 10 0
BBX 8 12 1 2
BITMAP
E0
E0
18
18
1F
07
07
18
18
E0
E0
E0
ENDCHAR
STARTCHAR question
ENCODING 63
SWIDTH 382 0
DWIDTH 12 0
BBX 10 19 1 0
BITMAP
1F00
1F00
E1C0
E1C0
E1C0
E1C0
E1C0
0700
0700
1F00
1800
1800
1800
1800
0000
0000
1800
1800
1800
ENDCHAR
STARTCHAR at
ENCODING 64
SWIDTH 604 0
DWIDTH 19 0
BBX 17 19 1 0
BITMAP
1FFE00
1FFE00
E00380
E00380
E00380
E1C380
E1C380
E73380
E73380
E73380
E73380
E73380
E1FE00
E1FE00
180000
180000
1FFE00
07FE00
07FE00
ENDCHAR
STARTCHAR A
ENCODING 65
SWIDTH 530 0
DWIDTH 17 0
BBX 15 19 1 0
BITMAP
07C0
07C0
07C0
07C0
07C0
1830
1830
1830
1830
1FF0
1FF0
1FF0
E00E
E00E
E00E
E00E
E00E
E00E
E00E
ENDCHAR
STARTCHAR B
ENCODING 66
SWIDTH 456 0
DWIDTH 15 0
BBX 12 19 1 0
BITMAP
FFC0
FFC0
E030
E030
E030
E030
E030
FFC0
FFC0
FFF0
E030
E030
E030
E030
E030
E030
FFF0
FFC0
FFC0
ENDCHAR
STARTCHAR C
ENCODING 67
SWIDTH 456 0
DWIDTH 15 0
BBX 12 19 1 0
BITMAP
1FC0
1FC0
E030
E030
E030
E000
E000
E000
E000
E000
E000
E000
E000
E000
E030
E030
FFF0
1FC0
1FC0
ENDCHAR
STARTCHAR D
ENCODING 68
SWIDTH 456 0
DWIDTH 15 0
BBX 12 19 1 0
BITMAP
FF00
FF00
E1C0
E1C0
E1C0
E030
E030
E030
E030
E030
E030
E030
E030
E030
E1C0
E1C0
FFC0
FF00
FF00
ENDCHAR
STARTCHAR E
ENCODING 69
SWIDTH 377 0
DWIDTH 12 0
BBX 10 19 1 0
BITMAP
FFC0
FFC0
E000
E000
E000
E000
E000
FFC0
FFC0
FFC0
E000
E000
E000
E000
E000
E000
FFC0
FFC0
FFC0
ENDCHAR
STARTCHAR F
ENCODING 70
SWIDTH 360 0
DWIDTH 12 0
BBX 10 19 1 0
BITMAP
FFC0
FFC0
E000
E000
E000
E000
E000
FF00
FF00
FF00
E000
E000
E000
E000
E000
E000
E000
E000
E000
ENDCHAR
STARTCHAR G
ENCODING 71
SWIDTH 456 0
DWIDTH 15 0
BBX 12 19 1 0
BITMAP
1FC0
1FC0
E030
E030
E030
E000
E000
E7F0
E7F0
E7F0
E030
E030
E030
E030
E1F0
E1F0
FFF0
1F30
1F30
ENDCHAR
STARTCHAR H
ENCODING 72
SWIDTH 456 0
DWIDTH 15 0
BBX 12 19 1 0
BITMAP
E030
E030
E030
E030
E030
E030
E030
FFF0
FFF0
FFF0
E030
E030
E030
E030
E030
E030
E030
E030
E030
ENDCHAR
STARTCHAR I
ENCODING 73
SWIDTH 160 0
DWIDTH 5 0
BBX 3 19 1 0
BITMAP
E0
E0
E0
E0
E0
E0
E0
E0
E0
E0
E0
E0
E0
E0
E0
E0
E0
E0
E0
ENDCHAR
STARTCHAR J
ENCODING 74
SWIDTH 368 0
DWIDTH 12 0
BBX 10 19 1 0
BITMAP
01C0
01C0
01C0
01C0
01C0
01C0
01C0
01C0
01C0
01C0
01C0
01C0
C1C0
C1C0
C1C0
C1C0
FFC0
3E00
3E00
ENDCHAR
STARTCHAR K
ENCODING 75
SWIDTH 438 0
DWIDTH 14 0
BBX 12 19 1 0
BITMAP
E1C0
E1C0
E700
E700
E700
F800
F800
E700
E700
E700
E700
E700
E1C0
E1C0
E1C0
E1C0
E1F0
E030
E030
ENDCHAR
STARTCHAR L
ENCODING 76
SWIDTH 355 0
DWIDTH 11 0
BBX 10 19 1 0
BITMAP
E000
E000
E000
E000
E000
E000
E000
E000
E000
E000
E000
E000
E000
E000
E000
E000
FFC0
FFC0
FFC0
ENDCHAR
STARTCHAR M
ENCODING 77
SWIDTH 604 0
DWIDTH 19 0
BBX 17 19 1 0
BITMAP
E00380
E00380
E00380
E00380
E00380
F80F80
F80F80
F80F80
F80F80
FF3F80
E73380
E73380
E73380
E73380
E1C380
E1C380
E1C380
E1C380
E1C380
ENDCHAR
STARTCHAR N
ENCODING 78
SWIDTH 456 0
DWIDTH 15 0
BBX 12 19 1 0
BITMAP
E030
E030
F830
F830
F830
F830
F830
E730
E730
E730
E730
E730
E1F0
E1F0
E1F0
E1F0
E1F0
E030
E030
ENDCHAR
STARTCHAR O
ENCODING 79
SWIDTH 456 0
DWIDTH 15 0
BBX 12 19 1 0
BITMAP
1FC0
1FC0
E030
E030
E030
E030
E030
E030
E030
E030
E030
E030
E030
E030
E030
E030
FFF0
1FC0
1FC0
ENDCHAR
STARTCHAR P
ENCODING 80
SWIDTH 456 0
DWIDTH 15 0
BBX 12 19 1 0
BITMAP
FFC0
FFC0
E030
E030
E030
E030
E030
FFC0
FFC0
FFC0
E000
E000
E000
E000
E000
E000
E000
E000
E000
ENDCHAR
STARTCHAR Q
ENCODING 81
SWIDTH 456 0
DWIDTH 15 0
BBX 12 19 1 0
BITMAP
1FC0
1FC0
E030
E030
E030
E030
E030
E030
E030
E030
E030
E030
E730
E730
E1C0
E1C0
FFF0
1F30
1F30
ENDCHAR
STARTCHAR R
ENCODING 82
SWIDTH 456 0
DWIDTH 15 0
BBX 12 19 1 0
BITMAP
FFC0
FFC0
E030
E030
E030
E030
E030
FFC0
FFC0
FFC0
E1C0
E1C0
E1C0
E1C0
E030
E030
E030
E030
E030
ENDCHAR
STARTCHAR S
ENCODING 83
SWIDTH 456 0
DWIDTH 15 0
BBX 12 19 1 0
BITMAP
1FC0
1FC0
E030
E030
E030
E000
E000
1FC0
1FC0
1FF0
0030
0030
E030
E030
E030
E030
FFF0
1FC0
1FC0
ENDCHAR
STARTCHAR T
ENCODING 84
SWIDTH 409 0
DWIDTH 13 0
BBX 12 19 1 0
BITMAP
FFF0
FFF0
0E00
0E00
0E00
0E00
0E00
0E00
0E00
0E00
0E00
0E00
0E00
0E00
0E00
0E00
0E00
0E00
0E00
ENDCHAR
STARTCHAR U
ENCODING 85
SWIDTH 456 0
DWIDTH 15 0
BBX 12 19 1 0
BITMAP
E030
E030
E030
E030
E030
E030
E030
E030
E030
E030
E030
E030
E030
E030
E030
E030
FFF0
1FC0
1FC0
ENDCHAR
STARTCHAR V
ENCODING 86
SWIDTH 530 0
DWIDTH 17 0
BBX 15 19 1 0
BITMAP
E00E
E00E
E00E
E00E
E00E
E00E
E00E
1830
1830
1830
1830
1830
1830
1830
07C0
07C0
07C0
07C0
07C0
ENDCHAR
STARTCHAR W
ENCODING 87
SWIDTH 604 0
DWIDTH 19 0
BBX 17 19 1 0
BITMAP
E1C380
E1C380
E1C380
E1C380
E1C380
E1C380
E1C380
19CE00
19CE00
19CE00
19CE00
19CE00
19CE00
19CE00
073000
073000
073000
073000
073000
ENDCHAR
STARTCHAR X
ENCODING 88
SWIDTH 456 0
DWIDTH 15 0
BBX 12 19 1 0
BITMAP
E030
E030
19C0
19C0
19C0
19C0
19C0
0700
0700
1FC0
19C0
19C0
19C0
19C0
E030
E030
E030
E030
E030
ENDCHAR
STARTCHAR Y
ENCODING 89
SWIDTH 456 0
DWIDTH 15 0
BBX 12 19 1 0
BITMAP
E030
E030
19C0
19C0
19C0
19C0
19C0
0700
0700
0700
0700
0700
0700
0700
0700
0700
0700
0700
0700
ENDCHAR
STARTCHAR Z
ENCODING 90
SWIDTH 382 0
DWIDTH 12 0
BBX 10 19 1 0
BITMAP
FFC0
FFC0
01C0
01C0
01C0
0700
0700
0700
0700
1F00
1800
1800
1800
1800
E000
E000
FFC0
FFC0
FFC0
ENDCHAR
STARTCHAR bracketleft
ENCODING 91
SWIDTH 234 0
DWIDTH 7 0
BBX 5 19 1 0
BITMAP
F8
F8
E0
E0
E0
E0
E0
E0
E0
E0
E0
E0
E0
E0
E0
E0
F8
F8
F8
ENDCHAR
STARTCHAR backslash
ENCODING 92
SWIDTH 382 0
DWIDTH 12 0
BBX 10 19 1 0
BITMAP
E000
E000
E000
E000
E000
1800
1800
1800
1800
1F00
0700
0700
0700
0700
01C0
01C0
01C0
01C0
01C0
ENDCHAR
STARTCHAR bracketright
ENCODING 93
SWIDTH 234 0
DWIDTH 7 0
BBX 5 19 1 0
BITMAP
F8
F8
18
18
18
18
18
18
18
18
18
18
18
18
18
18
F8
F8
F8
ENDCHAR
STARTCHAR asciicircum
ENCODING 94
SWIDTH 456 0
DWIDTH 15 0
BBX 12 8 1 9
BITMAP
0700
0700
0700
19C0
19C0
E030
E030
E030
ENDCHAR
STARTCHAR underscore
ENCODING 95
SWIDTH 456 0
DWIDTH 15 0
BBX 12 2 1 -2
BITMAP
FFF0
FFF0
ENDCHAR
STARTCHAR grave
ENCODING 96
SWIDTH 234 0
DWIDTH 7 0
BBX 5 5 2 17
BITMAP
E0
E0
E0
18
18
ENDCHAR
STARTCHAR a
ENCODING 97
SWIDTH 442 0
DWIDTH 14 0
BBX 12 14 1 0
BITMAP
3E00
3E00
01C0
01C0
3FC0
3FC0
3FC0
E1C0
E1C0
E1C0
E1C0
FFF0
3E30
3E30
ENDCHAR
STARTCHAR b
ENCODING 98
SWIDTH 378 0
DWIDTH 12 0
BBX 10 19 1 0
BITMAP
E000
E000
E000
E000
E000
FF00
FF00
E1C0
E1C0
E1C0
E1C0
E1C0
E1C0
E1C0
E1C0
E1C0
FFC0
FF00
FF00
ENDCHAR
STARTCHAR c
ENCODING 99
SWIDTH 375 0
DWIDTH 12 0
BBX 10 14 1 0
BITMAP
1F00
1F00
E1C0
E1C0
E1C0
E000
E000
E000
E000
E1C0
E1C0
FFC0
1F00
1F00
ENDCHAR
STARTCHAR d
ENCODING 100
SWIDTH 378 0
DWIDTH 12 0
BBX 10 19 1 0
BITMAP
01C0
01C0
01C0
01C0
01C0
3FC0
3FC0
E1C0
E1C0
E1C0
E1C0
E1C0
E1C0
E1C0
E1C0
E1C0
FFC0
3FC0
3FC0
ENDCHAR
STARTCHAR e
ENCODING 101
SWIDTH 382 0
DWIDTH 12 0
BBX 10 14 1 0
BITMAP
1F00
1F00
E1C0
E1C0
FFC0
FFC0
FFC0
E000
E000
E1C0
E1C0
FFC0
1F00
1F00
ENDCHAR
STARTCHAR f
ENCODING 102
SWIDTH 295 0
DWIDTH 9 0
BBX 8 19 1 0
BITMAP
07
07
18
18
18
FF
FF
18
18
18
18
18
18
18
18
18
18
18
18
ENDCHAR
STARTCHAR g
ENCODING 103
SWIDTH 378 0
DWIDTH 12 0
BBX 10 21 1 -7
BITMAP
3FC0
3FC0
E1C0
E1C0
E1C0
E1C0
E1C0
E1C0
E1C0
E1C0
E1C0
FFC0
3FC0
3FC0
01C0
01C0
E1C0
E1C0
E1C0
3E00
3E00
ENDCHAR
STARTCHAR h
ENCODING 104
SWIDTH 380 0
DWIDTH 12 0
BBX 10 19 1 0
BITMAP
E000
E000
E000
E000
E000
FF00
FF00
E1C0
E1C0
E1C0
E1C0
E1C0
E1C0
E1C0
E1C0
E1C0
E1C0
E1C0
E1C0
ENDCHAR
STARTCHAR i
ENCODING 105
SWIDTH 170 0
DWIDTH 5 0
BBX 3 19 1 0
BITMAP
E0
E0
00
00
00
E0
E0
E0
E0
E0
E0
E0
E0
E0
E0
E0
E0
E0
E0
ENDCHAR
STARTCHAR j
ENCODING 106
SWIDTH 206 0
DWIDTH 7 0
BBX 5 26 0 -7
BITMAP
18
18
00
00
00
18
18
18
18
18
18
18
18
18
18
18
18
18
18
18
18
18
18
18
E0
E0
ENDCHAR
STARTCHAR k
ENCODING 107
SWIDTH 375 0
DWIDTH 12 0
BBX 10 19 1 0
BITMAP
E000
E000
E000
E000
E000
E1C0
E1C0
E700
E700
FF00
F800
F800
F800
F800
E700
E700
E7C0
E1C0
E1C0
ENDCHAR
STARTCHAR l
ENCODING 108
SWIDTH 160 0
DWIDTH 5 0
BBX 3 19 1 0
BITMAP
E0
E0
E0
E0
E0
E0
E0
E0
E0
E0
E0
E0
E0
E0
E0
E0
E0
E0
E0
ENDCHAR
STARTCHAR m
ENCODING 109
SWIDTH 602 0
DWIDTH 19 0
BBX 17 14 1 0
BITMAP
FF3E00
FF3E00
E1C380
E1C380
E1C380
E1C380
E1C380
E1C380
E1C380
E1C380
E1C380
E1C380
E1C380
E1C380
ENDCHAR
STARTCHAR n
ENCODING 110
SWIDTH 380 0
DWIDTH 12 0
BBX 10 14 1 0
BITMAP
FF00
FF00
E1C0
E1C0
E1C0
E1C0
E1C0
E1C0
E1C0
E1C0
E1C0
E1C0
E1C0
E1C0
ENDCHAR
STARTCHAR o
ENCODING 111
SWIDTH 373 0
DWIDTH 12 0
BBX 10 14 1 0
BITMAP
3E00
3E00
E1C0
E1C0
E1C0
E1C0
E1C0
E1C0
E1C0
E1C0
E1C0
FFC0
3E00
3E00
ENDCHAR
STARTCHAR p
ENCODING 112
SWIDTH 375 0
DWIDTH 12 0
BBX 10 21 1 -7
BITMAP
FF00
FF00
E1C0
E1C0
E1C0
E1C0
E1C0
E1C0
E1C0
E1C0
E1C0
FFC0
FF00
FF00
E000
E000
E000
E000
E000
E000
E000
ENDCHAR
STARTCHAR q
ENCODING 113
SWIDTH 375 0
DWIDTH 12 0
BBX 10 21 1 -7
BITMAP
3FC0
3FC0
E1C0
E1C0
E1C0
E1C0
E1C0
E1C0
E1C0
E1C0
E1C0
FFC0
3FC0
3FC0
01C0
01C0
01C0
01C0
01C0
01C0
01C0
ENDCHAR
STARTCHAR r
ENCODING 114
SWIDTH 292 0
DWIDTH 9 0
BBX 8 14 1 0
BITMAP
E7
E7
F8
F8
F8
E0
E0
E0
E0
E0
E0
E0
E0
E0
ENDCHAR
STARTCHAR s
ENCODING 115
SWIDTH 372 0
DWIDTH 12 0
BBX 10 14 1 0
BITMAP
1F00
1F00
E000
E000
FF00
1F00
1F00
01C0
01C0
01C0
01C0
FFC0
FF00
FF00
ENDCHAR
STARTCHAR t
ENCODING 116
SWIDTH 284 0
DWIDTH 9 0
BBX 7 19 1 0
BITMAP
38
38
38
38
38
FE
FE
38
38
38
38
38
38
38
38
38
3E
0E
0E
ENDCHAR
STARTCHAR u
ENCODING 117
SWIDTH 378 0
DWIDTH 12 0
BBX 10 14 1 0
BITMAP
E1C0
E1C0
E1C0
E1C0
E1C0
E1C0
E1C0
E1C0
E1C0
E1C0
E1C0
FFC0
3FC0
3FC0
ENDCHAR
STARTCHAR v
ENCODING 118
SWIDTH 430 0
DWIDTH 14 0
BBX 12 14 1 0
BITMAP
C070
C070
C070
C070
F9F0
3980
3980
3980
3980
0E00
0E00
0E00
0E00
0E00
ENDCHAR
STARTCHAR w
ENCODING 119
SWIDTH 576 0
DWIDTH 18 0
BBX 17 14 1 0
BITMAP
C00380
C00380
C00380
C00380
F98F80
398C00
398C00
398C00
398C00
0E7000
0E7000
0E7000
0E7000
0E7000
ENDCHAR
STARTCHAR x
ENCODING 120
SWIDTH 382 0
DWIDTH 12 0
BBX 10 14 1 0
BITMAP
E1C0
E1C0
E1C0
E1C0
FFC0
1F00
1F00
E1C0
E1C0
E1C0
E1C0
E1C0
E1C0
E1C0
ENDCHAR
STARTCHAR y
ENCODING 121
SWIDTH 378 0
DWIDTH 12 0
BBX 10 21 1 -7
BITMAP
E1C0
E1C0
E1C0
E1C0
E1C0
E1C0
E1C0
E1C0
E1C0
E1C0
E1C0
FFC0
3FC0
3FC0
01C0
01C0
E1C0
E1C0
E1C0
3E00
3E00
ENDCHAR
STARTCHAR z
ENCODING 122
SWIDTH 366 0
DWIDTH 12 0
BBX 10 14 1 0
BITMAP
FFC0
FFC0
01C0
01C0
07C0
0600
0600
3800
3800
E000
E000
FFC0
FFC0
FFC0
ENDCHAR
STARTCHAR braceleft
ENCODING 123
SWIDTH 308 0
DWIDTH 10 0
BBX 8 21 1 -2
BITMAP
07
07
18
18
18
18
18
18
18
F8
E0
E0
18
18
18
18
18
18
18
07
07
ENDCHAR
STARTCHAR bar
ENCODING 124
SWIDTH 230 0
DWIDTH 7 0
BBX 2 29 3 -7
BITMAP
C0
C0
C0
C0
C0
C0
C0
C0
C0
C0
C0
C0
C0
C0
C0
C0
C0
C0
C0
C0
C0
C0
C0
C0
C0
C0
C0
C0
C0
ENDCHAR
STARTCHAR braceright
ENCODING 125
SWIDTH 308 0
DWIDTH 10 0
BBX 8 21 1 -2
BITMAP
E0
E0
18
18
18
18
18
18
18
1F
07
07
18
18
18
18
18
18
18
E0
E0
ENDCHAR
STARTCHAR asciitilde
ENCODING 126
SWIDTH 456 0
DWIDTH 15 0
BBX 12 5 1 7
BITMAP
1F30
1F30
FFF0
E7C0
E7C0
ENDCHAR
STARTCHAR nonbreakingspace
ENCODING 160
SWIDTH 184 0
DWIDTH 6 0
BBX 1 1 0 0
BITMAP
00
ENDCHAR
STARTCHAR exclamdown
ENCODING 161
SWIDTH 171 0
DWIDTH 5 0
BBX 3 19 1 -5
BITMAP
E0
E0
00
00
E0
E0
E0
E0
E0
E0
E0
E0
E0
E0
E0
E0
E0
E0
E0
ENDCHAR
STARTCHAR cent
ENCODING 162
SWIDTH 456 0
DWIDTH 15 0
BBX 12 19 1 0
BITMAP
0700
0700
1FC0
1FC0
1FC0
E730
E730
E700
E700
E700
E700
E700
E730
E730
1FC0
1FC0
1FC0
0700
0700
ENDCHAR
STARTCHAR sterling
ENCODING 163
SWIDTH 382 0
DWIDTH 12 0
BBX 10 19 1 0
BITMAP
07C0
07C0
1800
1800
1800
1800
1800
FF00
FF00
FF00
1800
1800
1800
1800
1800
1800
FFC0
E7C0
E7C0
ENDCHAR
STARTCHAR currency
ENCODING 164
SWIDTH 604 0
DWIDTH 19 0
BBX 17 17 1 0
BITMAP
E00380
E00380
E00380
1FFE00
1FFE00
180E00
180E00
180E00
180E00
180E00
180E00
180E00
1FFE00
1FFE00
FFFF80
E00380
E00380
ENDCHAR
STARTCHAR yen
ENCODING 165
SWIDTH 456 0
DWIDTH 15 0
BBX 12 19 1 0
BITMAP
E030
E030
19C0
19C0
19C0
19C0
19C0
0700
0700
FFF0
FFF0
FFF0
0700
0700
FFF0
FFF0
FFF0
0700
0700
ENDCHAR
STARTCHAR brokenbar
ENCODING 166
SWIDTH 230 0
DWIDTH 7 0
BBX 2 29 3 -7
BITMAP
C0
C0
C0
C0
C0
C0
C0
C0
C0
C0
C0
C0
C0
00
00
00
00
C0
C0
C0
C0
C0
C0
C0
C0
C0
C0
C0
C0
ENDCHAR
STARTCHAR section
ENCODING 167
SWIDTH 382 0
DWIDTH 12 0
BBX 10 24 1 -5
BITMAP
1F00
1F00
E000
E000
E000
E000
E000
1F00
1F00
FFC0
E1C0
E1C0
E1C0
E1C0
1F00
1F00
1FC0
01C0
01C0
01C0
01C0
1F00
1F00
1F00
ENDCHAR
STARTCHAR dieresis
ENCODING 168
SWIDTH 308 0
DWIDTH 10 0
BBX 8 2 1 17
BITMAP
E7
E7
ENDCHAR
STARTCHAR copyright
ENCODING 169
SWIDTH 604 0
DWIDTH 19 0
BBX 17 19 1 0
BITMAP
1FFE00
1FFE00
E00380
E00380
E00380
E1F380
E1F380
E70380
E70380
E70380
E70380
E70380
E1F380
E1F380
E00380
E00380
FFFF80
1FFE00
1FFE00
ENDCHAR
STARTCHAR ordfeminine
ENCODING 170
SWIDTH 456 0
DWIDTH 15 0
BBX 12 12 1 5
BITMAP
1F00
1F00
1F00
01C0
01C0
1FC0
1FC0
FFC0
E1C0
E1C0
1F30
1F30
ENDCHAR
STARTCHAR guillemotleft
ENCODING 171
SWIDTH 558 0
DWIDTH 18 0
BBX 16 12 1 2
BITMAP
0607
0607
381C
381C
F87C
C060
C060
381C
381C
0607
0607
0607
ENDCHAR
STARTCHAR logicalnot
ENCODING 172
SWIDTH 456 0
DWIDTH 15 0
BBX 12 8 1 2
BITMAP
FFF0
FFF0
FFF0
0030
0030
0030
0030
0030
ENDCHAR
STARTCHAR registered
ENCODING 174
SWIDTH 604 0
DWIDTH 19 0
BBX 17 19 1 0
BITMAP
1FFE00
1FFE00
E00380
E00380
E00380
E7F380
E7F380
E7F380
E7F380
E7F380
E7C380
E7C380
E73380
E73380
E00380
E00380
FFFF80
1FFE00
1FFE00
ENDCHAR
STARTCHAR macron
ENCODING 175
SWIDTH 382 0
DWIDTH 12 0
BBX 10 2 1 17
BITMAP
FFC0
FFC0
ENDCHAR
STARTCHAR degree
ENCODING 176
SWIDTH 382 0
DWIDTH 12 0
BBX 10 10 1 12
BITMAP
1F00
1F00
1F00
E1C0
E1C0
E1C0
E1C0
E1C0
1F00
1F00
ENDCHAR
STARTCHAR plusminus
ENCODING 177
SWIDTH 456 0
DWIDTH 15 0
BBX 12 16 1 -2
BITMAP
0700
0700
0700
0700
FFF0
FFF0
FFF0
0700
0700
0700
0700
0700
0000
0000
FFF0
FFF0
ENDCHAR
STARTCHAR twosuperior
ENCODING 178
SWIDTH 322 0
DWIDTH 10 0
BBX 8 11 1 9
BITMAP
3C
FF
C3
CF
0C
30
30
C0
C0
FF
FF
ENDCHAR
STARTCHAR threesuperior
ENCODING 179
SWIDTH 322 0
DWIDTH 10 0
BBX 8 11 1 9
BITMAP
3C
FF
C3
C3
0C
0C
03
C3
C3
3C
3C
ENDCHAR
STARTCHAR acute
ENCODING 180
SWIDTH 234 0
DWIDTH 7 0
BBX 5 5 0 17
BITMAP
18
18
18
E0
E0
ENDCHAR
STARTCHAR paragraph
ENCODING 182
SWIDTH 456 0
DWIDTH 15 0
BBX 12 21 1 -2
BITMAP
1FF0
1FF0
FF30
FF30
FF30
1F30
1F30
0730
0730
0730
0730
0730
0730
0730
0730
0730
0730
0730
0730
0730
0730
ENDCHAR
STARTCHAR periodcentered
ENCODING 183
SWIDTH 160 0
DWIDTH 5 0
BBX 3 3 1 7
BITMAP
E0
E0
E0
ENDCHAR
STARTCHAR cedilla
ENCODING 184
SWIDTH 234 0
DWIDTH 7 0
BBX 5 5 1 -7
BITMAP
18
18
18
E0
E0
ENDCHAR
STARTCHAR onesuperior
ENCODING 185
SWIDTH 203 0
DWIDTH 7 0
BBX 4 11 1 9
BITMAP
30
F0
F0
F0
30
30
30
30
30
30
30
ENDCHAR
STARTCHAR ordmasculine
ENCODING 186
SWIDTH 382 0
DWIDTH 12 0
BBX 10 12 1 5
BITMAP
1F00
1F00
1F00
E1C0
E1C0
E1C0
E1C0
E1C0
E1C0
E1C0
1F00
1F00
ENDCHAR
STARTCHAR guillemotright
ENCODING 187
SWIDTH 558 0
DWIDTH 18 0
BBX 16 12 1 2
BITMAP
C060
C060
381C
381C
3E1F
0607
0607
381C
381C
C060
C060
C060
ENDCHAR
STARTCHAR onequarter
ENCODING 188
SWIDTH 782 0
DWIDTH 25 0
BBX 23 21 1 -1
BITMAP
300000
F00C00
F00C00
F00C00
300C00
300C00
307000
307000
307000
307000
31F018
01C078
01C078
01C1F8
01C198
060198
0607FE
0607FE
060018
060018
000018
ENDCHAR
STARTCHAR onehalf
ENCODING 189
SWIDTH 723 0
DWIDTH 23 0
BBX 21 21 1 -1
BITMAP
300000
F00C00
F00C00
F00C00
300C00
300C00
307000
307000
307000
307000
31F1E0
01C7F8
01C618
01C678
01C060
060180
060180
060600
060600
0607F8
0007F8
ENDCHAR
STARTCHAR threequarters
ENCODING 190
SWIDTH 851 0
DWIDTH 27 0
BBX 25 21 1 -1
BITMAP
3C000000
FF038000
C3038000
C3038000
0C038000
0C038000
030C0000
C30C0000
C30C0000
3C0C0000
3C7C0600
00701E00
00701E00
00707E00
00706600
01806600
0181FF80
0181FF80
01800600
01800600
00000600
ENDCHAR
STARTCHAR questiondown
ENCODING 191
SWIDTH 382 0
DWIDTH 12 0
BBX 10 19 1 -5
BITMAP
0700
0700
0000
0000
0700
0700
0700
0700
0700
1800
1800
F9C0
E1C0
E1C0
E1C0
E1C0
1F00
1F00
1F00
ENDCHAR
STARTCHAR Agrave
ENCODING 192
SWIDTH 530 0
DWIDTH 17 0
BBX 15 27 1 0
BITMAP
0700
0700
0700
01C0
01C0
0000
0000
0000
07C0
07C0
07C0
07C0
07C0
1830
1830
1830
1830
1FF0
1FF0
1FF0
E00E
E00E
E00E
E00E
E00E
E00E
E00E
ENDCHAR
STARTCHAR Aacute
ENCODING 193
SWIDTH 530 0
DWIDTH 17 0
BBX 15 27 1 0
BITMAP
01C0
01C0
01C0
0700
0700
0000
0000
0000
07C0
07C0
07C0
07C0
07C0
1830
1830
1830
1830
1FF0
1FF0
1FF0
E00E
E00E
E00E
E00E
E00E
E00E
E00E
ENDCHAR
STARTCHAR Acircumflex
ENCODING 194
SWIDTH 530 0
DWIDTH 17 0
BBX 15 27 1 0
BITMAP
0380
0380
0380
0C60
0C60
0000
0000
0000
07C0
07C0
07C0
07C0
07C0
1830
1830
1830
1830
1FF0
1FF0
1FF0
E00E
E00E
E00E
E00E
E00E
E00E
E00E
ENDCHAR
STARTCHAR Atilde
ENCODING 195
SWIDTH 530 0
DWIDTH 17 0
BBX 15 27 1 0
BITMAP
0730
0730
0730
19C0
19C0
0000
0000
0000
07C0
07C0
07C0
07C0
07C0
1830
1830
1830
1830
1FF0
1FF0
1FF0
E00E
E00E
E00E
E00E
E00E
E00E
E00E
ENDCHAR
STARTCHAR Adieresis
ENCODING 196
SWIDTH 530 0
DWIDTH 17 0
BBX 15 24 1 0
BITMAP
0C60
0C60
0000
0000
0000
07C0
07C0
07C0
07C0
07C0
1830
1830
1830
1830
1FF0
1FF0
1FF0
E00E
E00E
E00E
E00E
E00E
E00E
E00E
ENDCHAR
STARTCHAR Aring
ENCODING 197
SWIDTH 530 0
DWIDTH 17 0
BBX 15 29 1 0
BITMAP
0380
0380
0FE0
0C60
0C60
0380
0380
0000
0000
0000
07C0
07C0
07C0
07C0
07C0
1830
1830
1830
1830
1FF0
1FF0
1FF0
E00E
E00E
E00E
E00E
E00E
E00E
E00E
ENDCHAR
STARTCHAR AE
ENCODING 198
SWIDTH 654 0
DWIDTH 21 0
BBX 19 19 1 0
BITMAP
01FFE0
01FFE0
01F000
01F000
01F000
0E7000
0E7000
0E7FE0
0E7FE0
3FFFE0
3FF000
3FF000
387000
387000
C07000
C07000
C07FE0
C07FE0
C07FE0
ENDCHAR
STARTCHAR Ccedilla
ENCODING 199
SWIDTH 456 0
DWIDTH 15 0
BBX 12 26 1 -7
BITMAP
1FC0
1FC0
E030
E030
E030
E000
E000
E000
E000
E000
E000
E000
E000
E000
E030
E030
FFF0
1FC0
1FC0
0000
0000
0700
0700
0700
1800
1800
ENDCHAR
STARTCHAR Egrave
ENCODING 200
SWIDTH 377 0
DWIDTH 12 0
BBX 10 27 1 0
BITMAP
1800
1800
1800
0600
0600
0000
0000
0000
FFC0
FFC0
E000
E000
E000
E000
E000
FFC0
FFC0
FFC0
E000
E000
E000
E000
E000
E000
FFC0
FFC0
FFC0
ENDCHAR
STARTCHAR Eacute
ENCODING 201
SWIDTH 377 0
DWIDTH 12 0
BBX 10 27 1 0
BITMAP
0600
0600
0600
1800
1800
0000
0000
0000
FFC0
FFC0
E000
E000
E000
E000
E000
FFC0
FFC0
FFC0
E000
E000
E000
E000
E000
E000
FFC0
FFC0
FFC0
ENDCHAR
STARTCHAR Ecircumflex
ENCODING 202
SWIDTH 377 0
DWIDTH 12 0
BBX 10 27 1 0
BITMAP
0C00
0C00
0C00
7380
7380
0000
0000
0000
FFC0
FFC0
E000
E000
E000
E000
E000
FFC0
FFC0
FFC0
E000
E000
E000
E000
E000
E000
FFC0
FFC0
FFC0
ENDCHAR
STARTCHAR Edieresis
ENCODING 203
SWIDTH 377 0
DWIDTH 12 0
BBX 10 24 1 0
BITMAP
7380
7380
0000
0000
0000
FFC0
FFC0
E000
E000
E000
E000
E000
FFC0
FFC0
FFC0
E000
E000
E000
E000
E000
E000
FFC0
FFC0
FFC0
ENDCHAR
STARTCHAR Igrave
ENCODING 204
SWIDTH 160 0
DWIDTH 5 0
BBX 5 27 0 0
BITMAP
E0
E0
E0
38
38
00
00
00
70
70
70
70
70
70
70
70
70
70
70
70
70
70
70
70
70
70
70
ENDCHAR
STARTCHAR Iacute
ENCODING 205
SWIDTH 160 0
DWIDTH 5 0
BBX 5 27 0 0
BITMAP
38
38
38
E0
E0
00
00
00
70
70
70
70
70
70
70
70
70
70
70
70
70
70
70
70
70
70
70
ENDCHAR
STARTCHAR Icircumflex
ENCODING 206
SWIDTH 160 0
DWIDTH 5 0
BBX 7 27 -1 0
BITMAP
38
38
38
E6
E6
00
00
00
38
38
38
38
38
38
38
38
38
38
38
38
38
38
38
38
38
38
38
ENDCHAR
STARTCHAR Idieresis
ENCODING 207
SWIDTH 160 0
DWIDTH 5 0
BBX 7 24 -1 0
BITMAP
E6
E6
00
00
00
38
38
38
38
38
38
38
38
38
38
38
38
38
38
38
38
38
38
38
ENDCHAR
STARTCHAR Eth
ENCODING 208
SWIDTH 488 0
DWIDTH 16 0
BBX 13 19 1 0
BITMAP
7F80
7F80
70E0
70E0
70E0
7018
7018
FC18
FC18
FC18
7018
7018
7018
7018
70E0
70E0
7FE0
7F80
7F80
ENDCHAR
STARTCHAR Ntilde
ENCODING 209
SWIDTH 456 0
DWIDTH 15 0
BBX 12 27 1 0
BITMAP
0C60
0C60
0C60
7380
7380
0000
0000
0000
E030
E030
F830
F830
F830
F830
F830
E730
E730
E730
E730
E730
E1F0
E1F0
E1F0
E1F0
E1F0
E030
E030
ENDCHAR
STARTCHAR Ograve
ENCODING 210
SWIDTH 456 0
DWIDTH 15 0
BBX 12 27 1 0
BITMAP
0C00
0C00
0C00
0380
0380
0000
0000
0000
1FC0
1FC0
E030
E030
E030
E030
E030
E030
E030
E030
E030
E030
E030
E030
E030
E030
FFF0
1FC0
1FC0
ENDCHAR
STARTCHAR Oacute
ENCODING 211
SWIDTH 456 0
DWIDTH 15 0
BBX 12 27 1 0
BITMAP
0380
0380
0380
0C00
0C00
0000
0000
0000
1FC0
1FC0
E030
E030
E030
E030
E030
E030
E030
E030
E030
E030
E030
E030
E030
E030
FFF0
1FC0
1FC0
ENDCHAR
STARTCHAR Ocircumflex
ENCODING 212
SWIDTH 456 0
DWIDTH 15 0
BBX 12 27 1 0
BITMAP
0700
0700
0700
19C0
19C0
0000
0000
0000
1FC0
1FC0
E030
E030
E030
E030
E030
E030
E030
E030
E030
E030
E030
E030
E030
E030
FFF0
1FC0
1FC0
ENDCHAR
STARTCHAR Otilde
ENCODING 213
SWIDTH 456 0
DWIDTH 15 0
BBX 12 27 1 0
BITMAP
0C60
0C60
0C60
7380
7380
0000
0000
0000
1FC0
1FC0
E030
E030
E030
E030
E030
E030
E030
E030
E030
E030
E030
E030
E030
E030
FFF0
1FC0
1FC0
ENDCHAR
STARTCHAR Odieresis
ENCODING 214
SWIDTH 456 0
DWIDTH 15 0
BBX 12 24 1 0
BITMAP
19C0
19C0
0000
0000
0000
1FC0
1FC0
E030
E030
E030
E030
E030
E030
E030
E030
E030
E030
E030
E030
E030
E030
FFF0
1FC0
1FC0
ENDCHAR
STARTCHAR multiply
ENCODING 215
SWIDTH 456 0
DWIDTH 15 0
BBX 12 12 1 2
BITMAP
E030
E030
19C0
19C0
1FC0
0700
0700
19C0
19C0
E030
E030
E030
ENDCHAR
STARTCHAR Oslash
ENCODING 216
SWIDTH 456 0
DWIDTH 15 0
BBX 12 24 1 -2
BITMAP
0030
0030
0030
1FC0
1FC0
E1F0
E1F0
E1F0
E1F0
E1F0
E730
E730
E730
E730
E730
F830
F830
F830
F830
FFF0
1FC0
1FC0
E000
E000
ENDCHAR
STARTCHAR Ugrave
ENCODING 217
SWIDTH 456 0
DWIDTH 15 0
BBX 12 27 1 0
BITMAP
0C00
0C00
0C00
0380
0380
0000
0000
0000
E030
E030
E030
E030
E030
E030
E030
E030
E030
E030
E030
E030
E030
E030
E030
E030
FFF0
1FC0
1FC0
ENDCHAR
STARTCHAR Uacute
ENCODING 218
SWIDTH 456 0
DWIDTH 15 0
BBX 12 27 1 0
BITMAP
0380
0380
0380
0C00
0C00
0000
0000
0000
E030
E030
E030
E030
E030
E030
E030
E030
E030
E030
E030
E030
E030
E030
E030
E030
FFF0
1FC0
1FC0
ENDCHAR
STARTCHAR Ucircumflex
ENCODING 219
SWIDTH 456 0
DWIDTH 15 0
BBX 12 27 1 0
BITMAP
0700
0700
0700
19C0
19C0
0000
0000
0000
E030
E030
E030
E030
E030
E030
E030
E030
E030
E030
E030
E030
E030
E030
E030
E030
FFF0
1FC0
1FC0
ENDCHAR
STARTCHAR Udieresis
ENCODING 220
SWIDTH 456 0
DWIDTH 15 0
BBX 12 24 1 0
BITMAP
19C0
19C0
0000
0000
0000
E030
E030
E030
E030
E030
E030
E030
E030
E030
E030
E030
E030
E030
E030
E030
E030
FFF0
1FC0
1FC0
ENDCHAR
STARTCHAR Yacute
ENCODING 221
SWIDTH 456 0
DWIDTH 15 0
BBX 12 27 1 0
BITMAP
0380
0380
0380
0C00
0C00
0000
0000
0000
E030
E030
19C0
19C0
19C0
19C0
19C0
0700
0700
0700
0700
0700
0700
0700
0700
0700
0700
0700
0700
ENDCHAR
STARTCHAR Thorn
ENCODING 222
SWIDTH 362 0
DWIDTH 12 0
BBX 10 19 1 0
BITMAP
E000
E000
E000
E000
E000
FF00
FF00
E1C0
E1C0
E1C0
E1C0
E1C0
FF00
FF00
E000
E000
E000
E000
E000
ENDCHAR
STARTCHAR germandbls
ENCODING 223
SWIDTH 382 0
DWIDTH 12 0
BBX 10 19 1 0
BITMAP
1F00
1F00
E1C0
E1C0
E1C0
E700
E700
E1C0
E1C0
E1C0
E1C0
E1C0
E1C0
E1C0
E1C0
E1C0
E7C0
E700
E700
ENDCHAR
STARTCHAR agrave
ENCODING 224
SWIDTH 442 0
DWIDTH 14 0
BBX 12 22 1 0
BITMAP
0C00
0C00
0C00
0380
0380
0000
0000
0000
3E00
3E00
01C0
01C0
3FC0
3FC0
3FC0
E1C0
E1C0
E1C0
E1C0
FFF0
3E30
3E30
ENDCHAR
STARTCHAR aacute
ENCODING 225
SWIDTH 442 0
DWIDTH 14 0
BBX 12 22 1 0
BITMAP
0380
0380
0380
0C00
0C00
0000
0000
0000
3E00
3E00
01C0
01C0
3FC0
3FC0
3FC0
E1C0
E1C0
E1C0
E1C0
FFF0
3E30
3E30
ENDCHAR
STARTCHAR acircumflex
ENCODING 226
SWIDTH 442 0
DWIDTH 14 0
BBX 12 22 1 0
BITMAP
0600
0600
0600
39C0
39C0
0000
0000
0000
3E00
3E00
01C0
01C0
3FC0
3FC0
3FC0
E1C0
E1C0
E1C0
E1C0
FFF0
3E30
3E30
ENDCHAR
STARTCHAR atilde
ENCODING 227
SWIDTH 442 0
DWIDTH 14 0
BBX 12 22 1 0
BITMAP
0CE0
0CE0
0CE0
7380
7380
0000
0000
0000
3E00
3E00
01C0
01C0
3FC0
3FC0
3FC0
E1C0
E1C0
E1C0
E1C0
FFF0
3E30
3E30
ENDCHAR
STARTCHAR adieresis
ENCODING 228
SWIDTH 442 0
DWIDTH 14 0
BBX 12 19 1 0
BITMAP
39C0
39C0
0000
0000
0000
3E00
3E00
01C0
01C0
3FC0
3FC0
3FC0
E1C0
E1C0
E1C0
E1C0
FFF0
3E30
3E30
ENDCHAR
STARTCHAR aring
ENCODING 229
SWIDTH 442 0
DWIDTH 14 0
BBX 12 24 1 0
BITMAP
0600
0600
3FC0
39C0
39C0
0600
0600
0000
0000
0000
3E00
3E00
01C0
01C0
3FC0
3FC0
3FC0
E1C0
E1C0
E1C0
E1C0
FFF0
3E30
3E30
ENDCHAR
STARTCHAR ae
ENCODING 230
SWIDTH 593 0
DWIDTH 19 0
BBX 17 14 1 0
BITMAP
3E7C00
3E7C00
01C380
01C380
3FFF80
3FFF80
3FFF80
E1C000
E1C000
E1C380
E1C380
FFFF80
3E7C00
3E7C00
ENDCHAR
STARTCHAR ccedilla
ENCODING 231
SWIDTH 375 0
DWIDTH 12 0
BBX 10 21 1 -7
BITMAP
1F00
1F00
E1C0
E1C0
E1C0
E000
E000
E000
E000
E1C0
E1C0
FFC0
1F00
1F00
0000
0000
0C00
0C00
0C00
3000
3000
ENDCHAR
STARTCHAR egrave
ENCODING 232
SWIDTH 382 0
DWIDTH 12 0
BBX 10 22 1 0
BITMAP
1800
1800
1800
0700
0700
0000
0000
0000
1F00
1F00
E1C0
E1C0
FFC0
FFC0
FFC0
E000
E000
E1C0
E1C0
FFC0
1F00
1F00
ENDCHAR
STARTCHAR eacute
ENCODING 233
SWIDTH 382 0
DWIDTH 12 0
BBX 10 22 1 0
BITMAP
0700
0700
0700
1800
1800
0000
0000
0000
1F00
1F00
E1C0
E1C0
FFC0
FFC0
FFC0
E000
E000
E1C0
E1C0
FFC0
1F00
1F00
ENDCHAR
STARTCHAR ecircumflex
ENCODING 234
SWIDTH 382 0
DWIDTH 12 0
BBX 10 22 1 0
BITMAP
0C00
0C00
0C00
7380
7380
0000
0000
0000
1F00
1F00
E1C0
E1C0
FFC0
FFC0
FFC0
E000
E000
E1C0
E1C0
FFC0
1F00
1F00
ENDCHAR
STARTCHAR edieresis
ENCODING 235
SWIDTH 382 0
DWIDTH 12 0
BBX 10 19 1 0
BITMAP
7380
7380
0000
0000
0000
1F00
1F00
E1C0
E1C0
FFC0
FFC0
FFC0
E000
E000
E1C0
E1C0
FFC0
1F00
1F00
ENDCHAR
STARTCHAR igrave
ENCODING 236
SWIDTH 169 0
DWIDTH 5 0
BBX 5 22 0 0
BITMAP
E0
E0
E0
18
18
00
00
00
70
70
70
70
70
70
70
70
70
70
70
70
70
70
ENDCHAR
STARTCHAR iacute
ENCODING 237
SWIDTH 169 0
DWIDTH 5 0
BBX 5 22 0 0
BITMAP
18
18
18
E0
E0
00
00
00
70
70
70
70
70
70
70
70
70
70
70
70
70
70
ENDCHAR
STARTCHAR icircumflex
ENCODING 238
SWIDTH 169 0
DWIDTH 5 0
BBX 7 22 -1 0
BITMAP
38
38
38
E6
E6
00
00
00
38
38
38
38
38
38
38
38
38
38
38
38
38
38
ENDCHAR
STARTCHAR idieresis
ENCODING 239
SWIDTH 169 0
DWIDTH 5 0
BBX 7 19 -1 0
BITMAP
E6
E6
00
00
00
38
38
38
38
38
38
38
38
38
38
38
38
38
38
ENDCHAR
STARTCHAR eth
ENCODING 240
SWIDTH 456 0
DWIDTH 15 0
BBX 12 19 1 0
BITMAP
1F30
1F30
01C0
01C0
01C0
0030
0030
1FF0
1FF0
FFF0
E030
E030
E030
E030
E1C0
E1C0
FFC0
1F00
1F00
ENDCHAR
STARTCHAR ntilde
ENCODING 241
SWIDTH 380 0
DWIDTH 12 0
BBX 10 22 1 0
BITMAP
19C0
19C0
19C0
E700
E700
0000
0000
0000
FF00
FF00
E1C0
E1C0
E1C0
E1C0
E1C0
E1C0
E1C0
E1C0
E1C0
E1C0
E1C0
E1C0
ENDCHAR
STARTCHAR ograve
ENCODING 242
SWIDTH 373 0
DWIDTH 12 0
BBX 10 22 1 0
BITMAP
3800
3800
3800
0600
0600
0000
0000
0000
3E00
3E00
E1C0
E1C0
E1C0
E1C0
E1C0
E1C0
E1C0
E1C0
E1C0
FFC0
3E00
3E00
ENDCHAR
STARTCHAR oacute
ENCODING 243
SWIDTH 373 0
DWIDTH 12 0
BBX 10 22 1 0
BITMAP
0600
0600
0600
3800
3800
0000
0000
0000
3E00
3E00
E1C0
E1C0
E1C0
E1C0
E1C0
E1C0
E1C0
E1C0
E1C0
FFC0
3E00
3E00
ENDCHAR
STARTCHAR ocircumflex
ENCODING 244
SWIDTH 373 0
DWIDTH 12 0
BBX 10 22 1 0
BITMAP
0C00
0C00
0C00
7380
7380
0000
0000
0000
3E00
3E00
E1C0
E1C0
E1C0
E1C0
E1C0
E1C0
E1C0
E1C0
E1C0
FFC0
3E00
3E00
ENDCHAR
STARTCHAR otilde
ENCODING 245
SWIDTH 373 0
DWIDTH 12 0
BBX 10 22 1 0
BITMAP
19C0
19C0
19C0
E600
E600
0000
0000
0000
3E00
3E00
E1C0
E1C0
E1C0
E1C0
E1C0
E1C0
E1C0
E1C0
E1C0
FFC0
3E00
3E00
ENDCHAR
STARTCHAR odieresis
ENCODING 246
SWIDTH 373 0
DWIDTH 12 0
BBX 10 19 1 0
BITMAP
7380
7380
0000
0000
0000
3E00
3E00
E1C0
E1C0
E1C0
E1C0
E1C0
E1C0
E1C0
E1C0
E1C0
FFC0
3E00
3E00
ENDCHAR
STARTCHAR divide
ENCODING 247
SWIDTH 456 0
DWIDTH 15 0
BBX 12 12 1 2
BITMAP
0700
0700
0000
0000
FFF0
FFF0
FFF0
0000
0000
0700
0700
0700
ENDCHAR
STARTCHAR oslash
ENCODING 248
SWIDTH 382 0
DWIDTH 12 0
BBX 10 19 1 -2
BITMAP
01C0
01C0
01C0
1F00
1F00
E7C0
E7C0
E7C0
E7C0
E7C0
F9C0
F9C0
F9C0
F9C0
FFC0
1F00
1F00
E000
E000
ENDCHAR
STARTCHAR ugrave
ENCODING 249
SWIDTH 378 0
DWIDTH 12 0
BBX 10 22 1 0
BITMAP
1800
1800
1800
0700
0700
0000
0000
0000
E1C0
E1C0
E1C0
E1C0
E1C0
E1C0
E1C0
E1C0
E1C0
E1C0
E1C0
FFC0
3FC0
3FC0
ENDCHAR
STARTCHAR uacute
ENCODING 250
SWIDTH 378 0
DWIDTH 12 0
BBX 10 22 1 0
BITMAP
0700
0700
0700
1800
1800
0000
0000
0000
E1C0
E1C0
E1C0
E1C0
E1C0
E1C0
E1C0
E1C0
E1C0
E1C0
E1C0
FFC0
3FC0
3FC0
ENDCHAR
STARTCHAR ucircumflex
ENCODING 251
SWIDTH 378 0
DWIDTH 12 0
BBX 10 22 1 0
BITMAP
0C00
0C00
0C00
7380
7380
0000
0000
0000
E1C0
E1C0
E1C0
E1C0
E1C0
E1C0
E1C0
E1C0
E1C0
E1C0
E1C0
FFC0
3FC0
3FC0
ENDCHAR
STARTCHAR udieresis
ENCODING 252
SWIDTH 378 0
DWIDTH 12 0
BBX 10 19 1 0
BITMAP
7380
7380
0000
0000
0000
E1C0
E1C0
E1C0
E1C0
E1C0
E1C0
E1C0
E1C0
E1C0
E1C0
E1C0
FFC0
3FC0
3FC0
ENDCHAR
STARTCHAR yacute
ENCODING 253
SWIDTH 378 0
DWIDTH 12 0
BBX 10 29 1 -7
BITMAP
0700
0700
0700
1800
1800
0000
0000
0000
E1C0
E1C0
E1C0
E1C0
E1C0
E1C0
E1C0
E1C0
E1C0
E1C0
E1C0
FFC0
3FC0
3FC0
01C0
01C0
E1C0
E1C0
E1C0
3E00
3E00
ENDCHAR
STARTCHAR thorn
ENCODING 254
SWIDTH 382 0
DWIDTH 12 0
BBX 10 26 1 -7
BITMAP
E000
E000
E000
E000
E000
FF00
FF00
E1C0
E1C0
E1C0
E1C0
E1C0
E1C0
E1C0
E1C0
E1C0
FFC0
FF00
FF00
E000
E000
E000
E000
E000
E000
E000
ENDCHAR
STARTCHAR ydieresis
ENCODING 255
SWIDTH 378 0
DWIDTH 12 0
BBX 10 26 1 -7
BITMAP
7380
7380
0000
0000
0000
E1C0
E1C0
E1C0
E1C0
E1C0
E1C0
E1C0
E1C0
E1C0
E1C0
E1C0
FFC0
3FC0
3FC0
01C0
01C0
E1C0
E1C0
E1C0
3E00
3E00
ENDCHAR
STARTCHAR Amacron
ENCODING 256
SWIDTH 530 0
DWIDTH 17 0
BBX 15 24 1 0
BITMAP
1FF0
1FF0
0000
0000
0000
07C0
07C0
07C0
07C0
07C0
1830
1830
1830
1830
1FF0
1FF0
1FF0
E00E
E00E
E00E
E00E
E00E
E00E
E00E
ENDCHAR
STARTCHAR amacron
ENCODING 257
SWIDTH 442 0
DWIDTH 14 0
BBX 12 19 1 0
BITMAP
7FE0
7FE0
0000
0000
0000
3E00
3E00
01C0
01C0
3FC0
3FC0
3FC0
E1C0
E1C0
E1C0
E1C0
FFF0
3E30
3E30
ENDCHAR
STARTCHAR Abreve
ENCODING 258
SWIDTH 530 0
DWIDTH 17 0
BBX 15 27 1 0
BITMAP
1830
1830
1830
07C0
07C0
0000
0000
0000
07C0
07C0
07C0
07C0
07C0
1830
1830
1830
1830
1FF0
1FF0
1FF0
E00E
E00E
E00E
E00E
E00E
E00E
E00E
ENDCHAR
STARTCHAR abreve
ENCODING 259
SWIDTH 442 0
DWIDTH 14 0
BBX 12 22 1 0
BITMAP
70E0
70E0
70E0
0F80
0F80
0000
0000
0000
3E00
3E00
01C0
01C0
3FC0
3FC0
3FC0
E1C0
E1C0
E1C0
E1C0
FFF0
3E30
3E30
ENDCHAR
STARTCHAR Aogonek
ENCODING 260
SWIDTH 530 0
DWIDTH 17 0
BBX 15 26 1 -7
BITMAP
07C0
07C0
07C0
07C0
07C0
1830
1830
1830
1830
1FF0
1FF0
1FF0
E00E
E00E
E00E
E00E
E00E
E00E
E00E
0030
0030
01C0
01C0
01C0
003E
003E
ENDCHAR
STARTCHAR aogonek
ENCODING 261
SWIDTH 456 0
DWIDTH 15 0
BBX 12 21 1 -7
BITMAP
1F00
1F00
01C0
01C0
1FC0
1FC0
1FC0
E1C0
E1C0
E1C0
E1C0
FFF0
1F30
1F30
01C0
01C0
0700
0700
0700
01F0
01F0
ENDCHAR
STARTCHAR Cacute
ENCODING 262
SWIDTH 456 0
DWIDTH 15 0
BBX 12 27 1 0
BITMAP
0380
0380
0380
0C00
0C00
0000
0000
0000
1FC0
1FC0
E030
E030
E030
E000
E000
E000
E000
E000
E000
E000
E000
E000
E030
E030
FFF0
1FC0
1FC0
ENDCHAR
STARTCHAR cacute
ENCODING 263
SWIDTH 375 0
DWIDTH 12 0
BBX 10 22 1 0
BITMAP
0600
0600
0600
1800
1800
0000
0000
0000
1F00
1F00
E1C0
E1C0
E1C0
E000
E000
E000
E000
E1C0
E1C0
FFC0
1F00
1F00
ENDCHAR
STARTCHAR Cdotaccent
ENCODING 266
SWIDTH 456 0
DWIDTH 15 0
BBX 12 24 1 0
BITMAP
0700
0700
0000
0000
0000
1FC0
1FC0
E030
E030
E030
E000
E000
E000
E000
E000
E000
E000
E000
E000
E030
E030
FFF0
1FC0
1FC0
ENDCHAR
STARTCHAR cdotaccent
ENCODING 267
SWIDTH 375 0
DWIDTH 12 0
BBX 10 19 1 0
BITMAP
0C00
0C00
0000
0000
0000
1F00
1F00
E1C0
E1C0
E1C0
E000
E000
E000
E000
E1C0
E1C0
FFC0
1F00
1F00
ENDCHAR
STARTCHAR Ccaron
ENCODING 268
SWIDTH 456 0
DWIDTH 15 0
BBX 12 27 1 0
BITMAP
19C0
19C0
19C0
0700
0700
0000
0000
0000
1FC0
1FC0
E030
E030
E030
E000
E000
E000
E000
E000
E000
E000
E000
E000
E030
E030
FFF0
1FC0
1FC0
ENDCHAR
STARTCHAR ccaron
ENCODING 269
SWIDTH 375 0
DWIDTH 12 0
BBX 10 22 1 0
BITMAP
7380
7380
7380
0C00
0C00
0000
0000
0000
1F00
1F00
E1C0
E1C0
E1C0
E000
E000
E000
E000
E1C0
E1C0
FFC0
1F00
1F00
ENDCHAR
STARTCHAR Dcaron
ENCODING 270
SWIDTH 456 0
DWIDTH 15 0
BBX 12 27 1 0
BITMAP
19C0
19C0
19C0
0700
0700
0000
0000
0000
FF00
FF00
E1C0
E1C0
E1C0
E030
E030
E030
E030
E030
E030
E030
E030
E030
E1C0
E1C0
FFC0
FF00
FF00
ENDCHAR
STARTCHAR dcaron
ENCODING 271
SWIDTH 547 0
DWIDTH 18 0
BBX 17 22 1 0
BITMAP
000380
000380
000380
01C380
01C380
01CC00
01CC00
01CC00
3FC000
3FC000
E1C000
E1C000
E1C000
E1C000
E1C000
E1C000
E1C000
E1C000
E1C000
FFC000
3FC000
3FC000
ENDCHAR
STARTCHAR Dcroat
ENCODING 272
SWIDTH 488 0
DWIDTH 16 0
BBX 13 19 1 0
BITMAP
7F80
7F80
70E0
70E0
70E0
7018
7018
FC18
FC18
FC18
7018
7018
7018
7018
70E0
70E0
7FE0
7F80
7F80
ENDCHAR
STARTCHAR dcroat
ENCODING 273
SWIDTH 406 0
DWIDTH 13 0
BBX 12 19 1 0
BITMAP
01C0
01C0
3FF0
3FF0
3FF0
01C0
01C0
3FC0
3FC0
FFC0
E1C0
E1C0
E1C0
E1C0
E1C0
E1C0
FFC0
3FC0
3FC0
ENDCHAR
STARTCHAR Emacron
ENCODING 274
SWIDTH 377 0
DWIDTH 12 0
BBX 10 24 1 0
BITMAP
FFC0
FFC0
0000
0000
0000
FFC0
FFC0
E000
E000
E000
E000
E000
FFC0
FFC0
FFC0
E000
E000
E000
E000
E000
E000
FFC0
FFC0
FFC0
ENDCHAR
STARTCHAR emacron
ENCODING 275
SWIDTH 382 0
DWIDTH 12 0
BBX 10 19 1 0
BITMAP
FFC0
FFC0
0000
0000
0000
1F00
1F00
E1C0
E1C0
FFC0
FFC0
FFC0
E000
E000
E1C0
E1C0
FFC0
1F00
1F00
ENDCHAR
STARTCHAR Ebreve
ENCODING 276
SWIDTH 377 0
DWIDTH 12 0
BBX 10 27 1 0
BITMAP
E1C0
E1C0
E1C0
1F00
1F00
0000
0000
0000
FFC0
FFC0
E000
E000
E000
E000
E000
FFC0
FFC0
FFC0
E000
E000
E000
E000
E000
E000
FFC0
FFC0
FFC0
ENDCHAR
STARTCHAR ebreve
ENCODING 277
SWIDTH 382 0
DWIDTH 12 0
BBX 10 22 1 0
BITMAP
E1C0
E1C0
E1C0
1F00
1F00
0000
0000
0000
1F00
1F00
E1C0
E1C0
FFC0
FFC0
FFC0
E000
E000
E1C0
E1C0
FFC0
1F00
1F00
ENDCHAR
STARTCHAR Edotaccent
ENCODING 278
SWIDTH 377 0
DWIDTH 12 0
BBX 10 24 1 0
BITMAP
0C00
0C00
0000
0000
0000
FFC0
FFC0
E000
E000
E000
E000
E000
FFC0
FFC0
FFC0
E000
E000
E000
E000
E000
E000
FFC0
FFC0
FFC0
ENDCHAR
STARTCHAR edotaccent
ENCODING 279
SWIDTH 382 0
DWIDTH 12 0
BBX 10 19 1 0
BITMAP
0C00
0C00
0000
0000
0000
1F00
1F00
E1C0
E1C0
FFC0
FFC0
FFC0
E000
E000
E1C0
E1C0
FFC0
1F00
1F00
ENDCHAR
STARTCHAR Eogonek
ENCODING 280
SWIDTH 377 0
DWIDTH 12 0
BBX 10 26 1 -7
BITMAP
FFC0
FFC0
E000
E000
E000
E000
E000
FFC0
FFC0
FFC0
E000
E000
E000
E000
E000
E000
FFC0
FFC0
FFC0
0700
0700
1800
1800
1800
07C0
07C0
ENDCHAR
STARTCHAR eogonek
ENCODING 281
SWIDTH 382 0
DWIDTH 12 0
BBX 10 21 1 -7
BITMAP
1F00
1F00
E1C0
E1C0
FFC0
FFC0
FFC0
E000
E000
E1C0
E1C0
FFC0
1F00
1F00
0700
0700
1800
1800
1800
07C0
07C0
ENDCHAR
STARTCHAR Ecaron
ENCODING 282
SWIDTH 377 0
DWIDTH 12 0
BBX 10 27 1 0
BITMAP
7380
7380
7380
0C00
0C00
0000
0000
0000
FFC0
FFC0
E000
E000
E000
E000
E000
FFC0
FFC0
FFC0
E000
E000
E000
E000
E000
E000
FFC0
FFC0
FFC0
ENDCHAR
STARTCHAR ecaron
ENCODING 283
SWIDTH 382 0
DWIDTH 12 0
BBX 10 22 1 0
BITMAP
7380
7380
7380
0C00
0C00
0000
0000
0000
1F00
1F00
E1C0
E1C0
FFC0
FFC0
FFC0
E000
E000
E1C0
E1C0
FFC0
1F00
1F00
ENDCHAR
STARTCHAR Gbreve
ENCODING 286
SWIDTH 456 0
DWIDTH 15 0
BBX 12 27 1 0
BITMAP
7060
7060
7060
0F80
0F80
0000
0000
0000
1FC0
1FC0
E030
E030
E030
E000
E000
E7F0
E7F0
E7F0
E030
E030
E030
E030
E1F0
E1F0
FFF0
1F30
1F30
ENDCHAR
STARTCHAR gbreve
ENCODING 287
SWIDTH 378 0
DWIDTH 12 0
BBX 10 29 1 -7
BITMAP
E1C0
E1C0
E1C0
1F00
1F00
0000
0000
0000
3FC0
3FC0
E1C0
E1C0
E1C0
E1C0
E1C0
E1C0
E1C0
E1C0
E1C0
FFC0
3FC0
3FC0
01C0
01C0
E1C0
E1C0
E1C0
3E00
3E00
ENDCHAR
STARTCHAR Gdotaccent
ENCODING 288
SWIDTH 456 0
DWIDTH 15 0
BBX 12 24 1 0
BITMAP
0700
0700
0000
0000
0000
1FC0
1FC0
E030
E030
E030
E000
E000
E7F0
E7F0
E7F0
E030
E030
E030
E030
E1F0
E1F0
FFF0
1F30
1F30
ENDCHAR
STARTCHAR gdotaccent
ENCODING 289
SWIDTH 378 0
DWIDTH 12 0
BBX 10 26 1 -7
BITMAP
0C00
0C00
0000
0000
0000
3FC0
3FC0
E1C0
E1C0
E1C0
E1C0
E1C0
E1C0
E1C0
E1C0
E1C0
FFC0
3FC0
3FC0
01C0
01C0
E1C0
E1C0
E1C0
3E00
3E00
ENDCHAR
STARTCHAR Gcommaaccent
ENCODING 290
SWIDTH 456 0
DWIDTH 15 0
BBX 12 26 1 -7
BITMAP
1FC0
1FC0
E030
E030
E030
E000
E000
E7F0
E7F0
E7F0
E030
E030
E030
E030
E1F0
E1F0
FFF0
1F30
1F30
0000
0000
0700
0700
0700
1800
1800
ENDCHAR
STARTCHAR gcommaaccent
ENCODING 291
SWIDTH 382 0
DWIDTH 12 0
BBX 10 29 1 -7
BITMAP
01C0
01C0
01C0
0700
0700
0000
0000
0000
1FC0
1FC0
E1C0
E1C0
E1C0
E1C0
E1C0
E1C0
E1C0
E1C0
E1C0
FFC0
1FC0
1FC0
01C0
01C0
E1C0
E1C0
E1C0
1F00
1F00
ENDCHAR
STARTCHAR Hbar
ENCODING 294
SWIDTH 456 0
DWIDTH 15 0
BBX 12 19 1 0
BITMAP
E030
E030
FFF0
FFF0
FFF0
E030
E030
FFF0
FFF0
FFF0
E030
E030
E030
E030
E030
E030
E030
E030
E030
ENDCHAR
STARTCHAR hbar
ENCODING 295
SWIDTH 409 0
DWIDTH 13 0
BBX 12 19 0 0
BITMAP
3800
3800
FFC0
FFC0
FFC0
3800
3800
3FC0
3FC0
3FF0
3870
3870
3870
3870
3870
3870
3870
3870
3870
ENDCHAR
STARTCHAR Itilde
ENCODING 296
SWIDTH 160 0
DWIDTH 5 0
BBX 9 27 -2 0
BITMAP
3980
3980
3980
CE00
CE00
0000
0000
0000
1C00
1C00
1C00
1C00
1C00
1C00
1C00
1C00
1C00
1C00
1C00
1C00
1C00
1C00
1C00
1C00
1C00
1C00
1C00
ENDCHAR
STARTCHAR itilde
ENCODING 297
SWIDTH 169 0
DWIDTH 5 0
BBX 10 22 -2 0
BITMAP
39C0
39C0
39C0
C600
C600
0000
0000
0000
1C00
1C00
1C00
1C00
1C00
1C00
1C00
1C00
1C00
1C00
1C00
1C00
1C00
1C00
ENDCHAR
STARTCHAR uni012A
ENCODING 298
SWIDTH 160 0
DWIDTH 5 0
BBX 9 24 -2 0
BITMAP
FF80
FF80
0000
0000
0000
1C00
1C00
1C00
1C00
1C00
1C00
1C00
1C00
1C00
1C00
1C00
1C00
1C00
1C00
1C00
1C00
1C00
1C00
1C00
ENDCHAR
STARTCHAR imacron
ENCODING 299
SWIDTH 169 0
DWIDTH 5 0
BBX 10 19 -2 0
BITMAP
FFC0
FFC0
0000
0000
0000
1C00
1C00
1C00
1C00
1C00
1C00
1C00
1C00
1C00
1C00
1C00
1C00
1C00
1C00
ENDCHAR
STARTCHAR Ibreve
ENCODING 300
SWIDTH 160 0
DWIDTH 5 0
BBX 9 27 -2 0
BITMAP
C180
C180
C180
3E00
3E00
0000
0000
0000
1C00
1C00
1C00
1C00
1C00
1C00
1C00
1C00
1C00
1C00
1C00
1C00
1C00
1C00
1C00
1C00
1C00
1C00
1C00
ENDCHAR
STARTCHAR ibreve
ENCODING 301
SWIDTH 169 0
DWIDTH 5 0
BBX 10 22 -2 0
BITMAP
C1C0
C1C0
C1C0
3E00
3E00
0000
0000
0000
1C00
1C00
1C00
1C00
1C00
1C00
1C00
1C00
1C00
1C00
1C00
1C00
1C00
1C00
ENDCHAR
STARTCHAR Iogonek
ENCODING 302
SWIDTH 160 0
DWIDTH 5 0
BBX 7 26 -1 -7
BITMAP
38
38
38
38
38
38
38
38
38
38
38
38
38
38
38
38
38
38
38
38
38
C0
C0
C0
3E
3E
ENDCHAR
STARTCHAR iogonek
ENCODING 303
SWIDTH 160 0
DWIDTH 5 0
BBX 7 21 -1 -7
BITMAP
38
38
38
38
38
38
38
38
38
38
38
38
38
38
38
38
C0
C0
C0
3E
3E
ENDCHAR
STARTCHAR Idotaccent
ENCODING 304
SWIDTH 160 0
DWIDTH 5 0
BBX 3 24 1 0
BITMAP
E0
E0
00
00
00
E0
E0
E0
E0
E0
E0
E0
E0
E0
E0
E0
E0
E0
E0
E0
E0
E0
E0
E0
ENDCHAR
STARTCHAR dotlessi
ENCODING 305
SWIDTH 169 0
DWIDTH 5 0
BBX 3 14 1 0
BITMAP
E0
E0
E0
E0
E0
E0
E0
E0
E0
E0
E0
E0
E0
E0
ENDCHAR
STARTCHAR IJ
ENCODING 306
SWIDTH 500 0
DWIDTH 16 0
BBX 14 19 1 0
BITMAP
E01C
E01C
E01C
E01C
E01C
E01C
E01C
E01C
E01C
E01C
E01C
E01C
EE1C
EE1C
EE1C
EE1C
EFFC
E3E0
E3E0
ENDCHAR
STARTCHAR ij
ENCODING 307
SWIDTH 303 0
DWIDTH 10 0
BBX 7 26 1 -7
BITMAP
E6
E6
00
00
00
E6
E6
E6
E6
E6
E6
E6
E6
E6
E6
E6
E6
E6
E6
06
06
06
06
06
38
38
ENDCHAR
STARTCHAR Kcommaaccent
ENCODING 310
SWIDTH 438 0
DWIDTH 14 0
BBX 12 26 1 -7
BITMAP
E1C0
E1C0
E700
E700
E700
F800
F800
E700
E700
E700
E700
E700
E1C0
E1C0
E1C0
E1C0
E1F0
E030
E030
0000
0000
0E00
0E00
0E00
3800
3800
ENDCHAR
STARTCHAR kcommaaccent
ENCODING 311
SWIDTH 375 0
DWIDTH 12 0
BBX 10 26 1 -7
BITMAP
E000
E000
E000
E000
E000
E1C0
E1C0
E700
E700
FF00
F800
F800
F800
F800
E700
E700
E7C0
E1C0
E1C0
0000
0000
0600
0600
0600
1800
1800
ENDCHAR
STARTCHAR Lacute
ENCODING 313
SWIDTH 355 0
DWIDTH 11 0
BBX 11 27 0 0
BITMAP
1800
1800
1800
E000
E000
0000
0000
0000
7000
7000
7000
7000
7000
7000
7000
7000
7000
7000
7000
7000
7000
7000
7000
7000
7FE0
7FE0
7FE0
ENDCHAR
STARTCHAR lacute
ENCODING 314
SWIDTH 160 0
DWIDTH 5 0
BBX 5 27 0 0
BITMAP
38
38
38
E0
E0
00
00
00
70
70
70
70
70
70
70
70
70
70
70
70
70
70
70
70
70
70
70
ENDCHAR
STARTCHAR Lcommaaccent
ENCODING 315
SWIDTH 355 0
DWIDTH 11 0
BBX 10 26 1 -7
BITMAP
E000
E000
E000
E000
E000
E000
E000
E000
E000
E000
E000
E000
E000
E000
E000
E000
FFC0
FFC0
FFC0
0000
0000
0E00
0E00
0E00
3000
3000
ENDCHAR
STARTCHAR lcommaaccent
ENCODING 316
SWIDTH 160 0
DWIDTH 5 0
BBX 5 26 -1 -7
BITMAP
38
38
38
38
38
38
38
38
38
38
38
38
38
38
38
38
38
38
38
00
00
38
38
38
C0
C0
ENDCHAR
STARTCHAR Lcaron
ENCODING 317
SWIDTH 355 0
DWIDTH 11 0
BBX 10 19 1 0
BITMAP
E180
E180
EE00
EE00
EE00
E000
E000
E000
E000
E000
E000
E000
E000
E000
E000
E000
FFC0
FFC0
FFC0
ENDCHAR
STARTCHAR lcaron
ENCODING 318
SWIDTH 298 0
DWIDTH 10 0
BBX 9 19 1 0
BITMAP
E380
E380
EC00
EC00
EC00
E000
E000
E000
E000
E000
E000
E000
E000
E000
E000
E000
E000
E000
E000
ENDCHAR
STARTCHAR Ldot
ENCODING 319
SWIDTH 355 0
DWIDTH 11 0
BBX 10 19 1 0
BITMAP
E000
E000
E000
E000
E000
E000
E000
E600
E600
E600
E000
E000
E000
E000
E000
E000
FFC0
FFC0
FFC0
ENDCHAR
STARTCHAR ldot
ENCODING 320
SWIDTH 228 0
DWIDTH 7 0
BBX 6 19 1 0
BITMAP
E0
E0
E0
E0
E0
E0
E0
FC
FC
FC
E0
E0
E0
E0
E0
E0
E0
E0
E0
ENDCHAR
STARTCHAR Lslash
ENCODING 321
SWIDTH 396 0
DWIDTH 13 0
BBX 12 19 0 0
BITMAP
1800
1800
1800
1800
1800
19C0
19C0
1F00
1F00
FF00
F800
F800
1800
1800
1800
1800
1FF0
1FF0
1FF0
ENDCHAR
STARTCHAR lslash
ENCODING 322
SWIDTH 247 0
DWIDTH 8 0
BBX 8 19 0 0
BITMAP
18
18
18
18
18
18
18
1F
1F
FF
F8
F8
18
18
18
18
18
18
18
ENDCHAR
STARTCHAR Nacute
ENCODING 323
SWIDTH 456 0
DWIDTH 15 0
BBX 12 27 1 0
BITMAP
0380
0380
0380
0C00
0C00
0000
0000
0000
E030
E030
F830
F830
F830
F830
F830
E730
E730
E730
E730
E730
E1F0
E1F0
E1F0
E1F0
E1F0
E030
E030
ENDCHAR
STARTCHAR nacute
ENCODING 324
SWIDTH 380 0
DWIDTH 12 0
BBX 10 22 1 0
BITMAP
0700
0700
0700
1800
1800
0000
0000
0000
FF00
FF00
E1C0
E1C0
E1C0
E1C0
E1C0
E1C0
E1C0
E1C0
E1C0
E1C0
E1C0
E1C0
ENDCHAR
STARTCHAR Ncommaaccent
ENCODING 325
SWIDTH 456 0
DWIDTH 15 0
BBX 12 26 1 -7
BITMAP
E030
E030
F830
F830
F830
F830
F830
E730
E730
E730
E730
E730
E1F0
E1F0
E1F0
E1F0
E1F0
E030
E030
0000
0000
0600
0600
0600
3800
3800
ENDCHAR
STARTCHAR ncommaaccent
ENCODING 326
SWIDTH 380 0
DWIDTH 12 0
BBX 10 21 1 -7
BITMAP
FF00
FF00
E1C0
E1C0
E1C0
E1C0
E1C0
E1C0
E1C0
E1C0
E1C0
E1C0
E1C0
E1C0
0000
0000
0C00
0C00
0C00
7000
7000
ENDCHAR
STARTCHAR Ncaron
ENCODING 327
SWIDTH 456 0
DWIDTH 15 0
BBX 12 27 1 0
BITMAP
19C0
19C0
19C0
0700
0700
0000
0000
0000
E030
E030
F830
F830
F830
F830
F830
E730
E730
E730
E730
E730
E1F0
E1F0
E1F0
E1F0
E1F0
E030
E030
ENDCHAR
STARTCHAR ncaron
ENCODING 328
SWIDTH 380 0
DWIDTH 12 0
BBX 10 22 1 0
BITMAP
7380
7380
7380
0C00
0C00
0000
0000
0000
FF00
FF00
E1C0
E1C0
E1C0
E1C0
E1C0
E1C0
E1C0
E1C0
E1C0
E1C0
E1C0
E1C0
ENDCHAR
STARTCHAR Eng
ENCODING 330
SWIDTH 456 0
DWIDTH 15 0
BBX 12 26 1 -7
BITMAP
E030
E030
F830
F830
F830
F830
F830
E730
E730
E730
E730
E730
E1F0
E1F0
E1F0
E1F0
E1F0
E030
E030
0030
0030
0030
0030
0030
01C0
01C0
ENDCHAR
STARTCHAR eng
ENCODING 331
SWIDTH 382 0
DWIDTH 12 0
BBX 10 21 1 -7
BITMAP
FF00
FF00
E1C0
E1C0
E1C0
E1C0
E1C0
E1C0
E1C0
E1C0
E1C0
E1C0
E1C0
E1C0
01C0
01C0
01C0
01C0
01C0
0700
0700
ENDCHAR
STARTCHAR Omacron
ENCODING 332
SWIDTH 456 0
DWIDTH 15 0
BBX 12 24 1 0
BITMAP
7FE0
7FE0
0000
0000
0000
1FC0
1FC0
E030
E030
E030
E030
E030
E030
E030
E030
E030
E030
E030
E030
E030
E030
FFF0
1FC0
1FC0
ENDCHAR
STARTCHAR omacron
ENCODING 333
SWIDTH 373 0
DWIDTH 12 0
BBX 10 19 1 0
BITMAP
FFC0
FFC0
0000
0000
0000
3E00
3E00
E1C0
E1C0
E1C0
E1C0
E1C0
E1C0
E1C0
E1C0
E1C0
FFC0
3E00
3E00
ENDCHAR
STARTCHAR Obreve
ENCODING 334
SWIDTH 456 0
DWIDTH 15 0
BBX 12 27 1 0
BITMAP
7060
7060
7060
0F80
0F80
0000
0000
0000
1FC0
1FC0
E030
E030
E030
E030
E030
E030
E030
E030
E030
E030
E030
E030
E030
E030
FFF0
1FC0
1FC0
ENDCHAR
STARTCHAR obreve
ENCODING 335
SWIDTH 373 0
DWIDTH 12 0
BBX 10 22 1 0
BITMAP
E1C0
E1C0
E1C0
1E00
1E00
0000
0000
0000
3E00
3E00
E1C0
E1C0
E1C0
E1C0
E1C0
E1C0
E1C0
E1C0
E1C0
FFC0
3E00
3E00
ENDCHAR
STARTCHAR Ohungarumlaut
ENCODING 336
SWIDTH 456 0
DWIDTH 15 0
BBX 12 29 1 0
BITMAP
1830
1830
1830
1830
1830
E1C0
E1C0
0000
0000
0000
1FC0
1FC0
E030
E030
E030
E030
E030
E030
E030
E030
E030
E030
E030
E030
E030
E030
FFF0
1FC0
1FC0
ENDCHAR
STARTCHAR ohungarumlaut
ENCODING 337
SWIDTH 373 0
DWIDTH 12 0
BBX 12 24 0 0
BITMAP
3870
3870
3870
3870
3870
E1C0
E1C0
0000
0000
0000
1F00
1F00
70E0
70E0
70E0
70E0
70E0
70E0
70E0
70E0
70E0
7FE0
1F00
1F00
ENDCHAR
STARTCHAR OE
ENCODING 338
SWIDTH 666 0
DWIDTH 21 0
BBX 19 19 1 0
BITMAP
1FFFE0
1FFFE0
E03000
E03000
E03000
E03000
E03000
E03FE0
E03FE0
E03FE0
E03000
E03000
E03000
E03000
E03000
E03000
FFFFE0
1FFFE0
1FFFE0
ENDCHAR
STARTCHAR oe
ENCODING 339
SWIDTH 597 0
DWIDTH 19 0
BBX 17 14 1 0
BITMAP
3E3C00
3E3C00
E1C380
E1C380
E1FF80
E1FF80
E1FF80
E1C000
E1C000
E1C380
E1C380
FFFF80
3E3C00
3E3C00
ENDCHAR
STARTCHAR Racute
ENCODING 340
SWIDTH 456 0
DWIDTH 15 0
BBX 12 27 1 0
BITMAP
0380
0380
0380
0C00
0C00
0000
0000
0000
FFC0
FFC0
E030
E030
E030
E030
E030
FFC0
FFC0
FFC0
E1C0
E1C0
E1C0
E1C0
E030
E030
E030
E030
E030
ENDCHAR
STARTCHAR racute
ENCODING 341
SWIDTH 292 0
DWIDTH 9 0
BBX 8 22 1 0
BITMAP
0C
0C
0C
70
70
00
00
00
E7
E7
F8
F8
F8
E0
E0
E0
E0
E0
E0
E0
E0
E0
ENDCHAR
STARTCHAR Rcommaaccent
ENCODING 342
SWIDTH 456 0
DWIDTH 15 0
BBX 12 26 1 -7
BITMAP
FFC0
FFC0
E030
E030
E030
E030
E030
FFC0
FFC0
FFC0
E1C0
E1C0
E1C0
E1C0
E030
E030
E030
E030
E030
0000
0000
0600
0600
0600
3800
3800
ENDCHAR
STARTCHAR rcommaaccent
ENCODING 343
SWIDTH 292 0
DWIDTH 9 0
BBX 10 21 -1 -7
BITMAP
39C0
39C0
3E00
3E00
3E00
3800
3800
3800
3800
3800
3800
3800
3800
3800
0000
0000
3800
3800
3800
C000
C000
ENDCHAR
STARTCHAR Rcaron
ENCODING 344
SWIDTH 456 0
DWIDTH 15 0
BBX 12 27 1 0
BITMAP
19C0
19C0
19C0
0700
0700
0000
0000
0000
FFC0
FFC0
E030
E030
E030
E030
E030
FFC0
FFC0
FFC0
E1C0
E1C0
E1C0
E1C0
E030
E030
E030
E030
E030
ENDCHAR
STARTCHAR rcaron
ENCODING 345
SWIDTH 292 0
DWIDTH 9 0
BBX 8 22 1 0
BITMAP
E6
E6
E6
38
38
00
00
00
E7
E7
F8
F8
F8
E0
E0
E0
E0
E0
E0
E0
E0
E0
ENDCHAR
STARTCHAR Sacute
ENCODING 346
SWIDTH 456 0
DWIDTH 15 0
BBX 12 27 1 0
BITMAP
0380
0380
0380
0C00
0C00
0000
0000
0000
1FC0
1FC0
E030
E030
E030
E000
E000
1FC0
1FC0
1FF0
0030
0030
E030
E030
E030
E030
FFF0
1FC0
1FC0
ENDCHAR
STARTCHAR sacute
ENCODING 347
SWIDTH 372 0
DWIDTH 12 0
BBX 10 22 1 0
BITMAP
0600
0600
0600
3800
3800
0000
0000
0000
1F00
1F00
E000
E000
FF00
1F00
1F00
01C0
01C0
01C0
01C0
FFC0
FF00
FF00
ENDCHAR
STARTCHAR Scedilla
ENCODING 350
SWIDTH 456 0
DWIDTH 15 0
BBX 12 26 1 -7
BITMAP
1FC0
1FC0
E030
E030
E030
E000
E000
1FC0
1FC0
1FF0
0030
0030
E030
E030
E030
E030
FFF0
1FC0
1FC0
0000
0000
0600
0600
0600
1800
1800
ENDCHAR
STARTCHAR scedilla
ENCODING 351
SWIDTH 372 0
DWIDTH 12 0
BBX 10 21 1 -7
BITMAP
1F00
1F00
E000
E000
FF00
1F00
1F00
01C0
01C0
01C0
01C0
FFC0
FF00
FF00
0000
0000
1C00
1C00
1C00
6000
6000
ENDCHAR
STARTCHAR Scaron
ENCODING 352
SWIDTH 456 0
DWIDTH 15 0
BBX 12 27 1 0
BITMAP
19C0
19C0
19C0
0700
0700
0000
0000
0000
1FC0
1FC0
E030
E030
E030
E000
E000
1FC0
1FC0
1FF0
0030
0030
E030
E030
E030
E030
FFF0
1FC0
1FC0
ENDCHAR
STARTCHAR scaron
ENCODING 353
SWIDTH 372 0
DWIDTH 12 0
BBX 10 22 1 0
BITMAP
7380
7380
7380
0C00
0C00
0000
0000
0000
1F00
1F00
E000
E000
FF00
1F00
1F00
01C0
01C0
01C0
01C0
FFC0
FF00
FF00
ENDCHAR
STARTCHAR Tcommaaccent
ENCODING 354
SWIDTH 409 0
DWIDTH 13 0
BBX 12 26 1 -7
BITMAP
FFF0
FFF0
0E00
0E00
0E00
0E00
0E00
0E00
0E00
0E00
0E00
0E00
0E00
0E00
0E00
0E00
0E00
0E00
0E00
0000
0000
0E00
0E00
0E00
3000
3000
ENDCHAR
STARTCHAR tcommaaccent
ENCODING 355
SWIDTH 284 0
DWIDTH 9 0
BBX 7 26 1 -7
BITMAP
38
38
38
38
38
FE
FE
38
38
38
38
38
38
38
38
38
3E
0E
0E
00
00
38
38
38
C0
C0
ENDCHAR
STARTCHAR Tcaron
ENCODING 356
SWIDTH 409 0
DWIDTH 13 0
BBX 12 27 1 0
BITMAP
3180
3180
3180
0E00
0E00
0000
0000
0000
FFF0
FFF0
0E00
0E00
0E00
0E00
0E00
0E00
0E00
0E00
0E00
0E00
0E00
0E00
0E00
0E00
0E00
0E00
0E00
ENDCHAR
STARTCHAR tcaron
ENCODING 357
SWIDTH 427 0
DWIDTH 14 0
BBX 13 19 1 0
BITMAP
1818
1818
18E0
18E0
18E0
FF00
FF00
1800
1800
1800
1800
1800
1800
1800
1800
1800
1F00
0700
0700
ENDCHAR
STARTCHAR Tbar
ENCODING 358
SWIDTH 407 0
DWIDTH 13 0
BBX 12 19 1 0
BITMAP
FFF0
FFF0
0E00
0E00
0E00
0E00
0E00
3F80
3F80
3F80
0E00
0E00
0E00
0E00
0E00
0E00
0E00
0E00
0E00
ENDCHAR
STARTCHAR tbar
ENCODING 359
SWIDTH 308 0
DWIDTH 10 0
BBX 8 19 1 0
BITMAP
18
18
18
18
18
FF
FF
18
18
FF
FF
FF
18
18
18
18
1F
07
07
ENDCHAR
STARTCHAR Utilde
ENCODING 360
SWIDTH 456 0
DWIDTH 15 0
BBX 12 27 1 0
BITMAP
0C60
0C60
0C60
7380
7380
0000
0000
0000
E030
E030
E030
E030
E030
E030
E030
E030
E030
E030
E030
E030
E030
E030
E030
E030
FFF0
1FC0
1FC0
ENDCHAR
STARTCHAR utilde
ENCODING 361
SWIDTH 378 0
DWIDTH 12 0
BBX 10 22 1 0
BITMAP
19C0
19C0
19C0
E700
E700
0000
0000
0000
E1C0
E1C0
E1C0
E1C0
E1C0
E1C0
E1C0
E1C0
E1C0
E1C0
E1C0
FFC0
3FC0
3FC0
ENDCHAR
STARTCHAR Umacron
ENCODING 362
SWIDTH 456 0
DWIDTH 15 0
BBX 12 24 1 0
BITMAP
7FE0
7FE0
0000
0000
0000
E030
E030
E030
E030
E030
E030
E030
E030
E030
E030
E030
E030
E030
E030
E030
E030
FFF0
1FC0
1FC0
ENDCHAR
STARTCHAR umacron
ENCODING 363
SWIDTH 378 0
DWIDTH 12 0
BBX 10 19 1 0
BITMAP
FFC0
FFC0
0000
0000
0000
E1C0
E1C0
E1C0
E1C0
E1C0
E1C0
E1C0
E1C0
E1C0
E1C0
E1C0
FFC0
3FC0
3FC0
ENDCHAR
STARTCHAR Ubreve
ENCODING 364
SWIDTH 456 0
DWIDTH 15 0
BBX 12 27 1 0
BITMAP
7060
7060
7060
0F80
0F80
0000
0000
0000
E030
E030
E030
E030
E030
E030
E030
E030
E030
E030
E030
E030
E030
E030
E030
E030
FFF0
1FC0
1FC0
ENDCHAR
STARTCHAR ubreve
ENCODING 365
SWIDTH 378 0
DWIDTH 12 0
BBX 10 22 1 0
BITMAP
E1C0
E1C0
E1C0
1F00
1F00
0000
0000
0000
E1C0
E1C0
E1C0
E1C0
E1C0
E1C0
E1C0
E1C0
E1C0
E1C0
E1C0
FFC0
3FC0
3FC0
ENDCHAR
STARTCHAR Uring
ENCODING 366
SWIDTH 456 0
DWIDTH 15 0
BBX 12 29 1 0
BITMAP
0700
0700
1FC0
19C0
19C0
0700
0700
0000
0000
0000
E030
E030
E030
E030
E030
E030
E030
E030
E030
E030
E030
E030
E030
E030
E030
E030
FFF0
1FC0
1FC0
ENDCHAR
STARTCHAR uring
ENCODING 367
SWIDTH 378 0
DWIDTH 12 0
BBX 10 24 1 0
BITMAP
0C00
0C00
7F80
7380
7380
0C00
0C00
0000
0000
0000
E1C0
E1C0
E1C0
E1C0
E1C0
E1C0
E1C0
E1C0
E1C0
E1C0
E1C0
FFC0
3FC0
3FC0
ENDCHAR
STARTCHAR Uhungarumlaut
ENCODING 368
SWIDTH 456 0
DWIDTH 15 0
BBX 12 29 1 0
BITMAP
1830
1830
1830
1830
1830
E1C0
E1C0
0000
0000
0000
E030
E030
E030
E030
E030
E030
E030
E030
E030
E030
E030
E030
E030
E030
E030
E030
FFF0
1FC0
1FC0
ENDCHAR
STARTCHAR uhungarumlaut
ENCODING 369
SWIDTH 378 0
DWIDTH 12 0
BBX 12 24 0 0
BITMAP
3830
3830
3830
3830
3830
E1C0
E1C0
0000
0000
0000
70E0
70E0
70E0
70E0
70E0
70E0
70E0
70E0
70E0
70E0
70E0
7FE0
1FE0
1FE0
ENDCHAR
STARTCHAR Uogonek
ENCODING 370
SWIDTH 456 0
DWIDTH 15 0
BBX 12 26 1 -7
BITMAP
E030
E030
E030
E030
E030
E030
E030
E030
E030
E030
E030
E030
E030
E030
E030
E030
FFF0
1FC0
1FC0
0700
0700
1800
1800
1800
07C0
07C0
ENDCHAR
STARTCHAR uogonek
ENCODING 371
SWIDTH 382 0
DWIDTH 12 0
BBX 10 21 1 -7
BITMAP
E1C0
E1C0
E1C0
E1C0
E1C0
E1C0
E1C0
E1C0
E1C0
E1C0
E1C0
FFC0
1FC0
1FC0
0700
0700
1800
1800
1800
07C0
07C0
ENDCHAR
STARTCHAR Wcircumflex
ENCODING 372
SWIDTH 604 0
DWIDTH 19 0
BBX 17 27 1 0
BITMAP
01C000
01C000
01C000
073000
073000
000000
000000
000000
E1C380
E1C380
E1C380
E1C380
E1C380
E1C380
E1C380
19CE00
19CE00
19CE00
19CE00
19CE00
19CE00
19CE00
073000
073000
073000
073000
073000
ENDCHAR
STARTCHAR wcircumflex
ENCODING 373
SWIDTH 576 0
DWIDTH 18 0
BBX 17 22 1 0
BITMAP
018000
018000
018000
067000
067000
000000
000000
000000
C00380
C00380
C00380
C00380
F98F80
398C00
398C00
398C00
398C00
0E7000
0E7000
0E7000
0E7000
0E7000
ENDCHAR
STARTCHAR Ycircumflex
ENCODING 374
SWIDTH 456 0
DWIDTH 15 0
BBX 12 27 1 0
BITMAP
0700
0700
0700
19C0
19C0
0000
0000
0000
E030
E030
19C0
19C0
19C0
19C0
19C0
0700
0700
0700
0700
0700
0700
0700
0700
0700
0700
0700
0700
ENDCHAR
STARTCHAR ycircumflex
ENCODING 375
SWIDTH 378 0
DWIDTH 12 0
BBX 10 29 1 -7
BITMAP
0C00
0C00
0C00
7380
7380
0000
0000
0000
E1C0
E1C0
E1C0
E1C0
E1C0
E1C0
E1C0
E1C0
E1C0
E1C0
E1C0
FFC0
3FC0
3FC0
01C0
01C0
E1C0
E1C0
E1C0
3E00
3E00
ENDCHAR
STARTCHAR Ydieresis
ENCODING 376
SWIDTH 456 0
DWIDTH 15 0
BBX 12 24 1 0
BITMAP
19C0
19C0
0000
0000
0000
E030
E030
19C0
19C0
19C0
19C0
19C0
0700
0700
0700
0700
0700
0700
0700
0700
0700
0700
0700
0700
ENDCHAR
STARTCHAR Zacute
ENCODING 377
SWIDTH 382 0
DWIDTH 12 0
BBX 10 27 1 0
BITMAP
0700
0700
0700
1800
1800
0000
0000
0000
FFC0
FFC0
01C0
01C0
01C0
0700
0700
0700
0700
1F00
1800
1800
1800
1800
E000
E000
FFC0
FFC0
FFC0
ENDCHAR
STARTCHAR zacute
ENCODING 378
SWIDTH 366 0
DWIDTH 12 0
BBX 10 22 1 0
BITMAP
0600
0600
0600
3800
3800
0000
0000
0000
FFC0
FFC0
01C0
01C0
07C0
0600
0600
3800
3800
E000
E000
FFC0
FFC0
FFC0
ENDCHAR
STARTCHAR Zdotaccent
ENCODING 379
SWIDTH 382 0
DWIDTH 12 0
BBX 10 24 1 0
BITMAP
0C00
0C00
0000
0000
0000
FFC0
FFC0
01C0
01C0
01C0
0700
0700
0700
0700
1F00
1800
1800
1800
1800
E000
E000
FFC0
FFC0
FFC0
ENDCHAR
STARTCHAR zdotaccent
ENCODING 380
SWIDTH 366 0
DWIDTH 12 0
BBX 10 19 1 0
BITMAP
0C00
0C00
0000
0000
0000
FFC0
FFC0
01C0
01C0
07C0
0600
0600
3800
3800
E000
E000
FFC0
FFC0
FFC0
ENDCHAR
STARTCHAR Zcaron
ENCODING 381
SWIDTH 382 0
DWIDTH 12 0
BBX 10 27 1 0
BITMAP
7380
7380
7380
0C00
0C00
0000
0000
0000
FFC0
FFC0
01C0
01C0
01C0
0700
0700
0700
0700
1F00
1800
1800
1800
1800
E000
E000
FFC0
FFC0
FFC0
ENDCHAR
STARTCHAR zcaron
ENCODING 382
SWIDTH 366 0
DWIDTH 12 0
BBX 10 22 1 0
BITMAP
7380
7380
7380
0C00
0C00
0000
0000
0000
FFC0
FFC0
01C0
01C0
07C0
0600
0600
3800
3800
E000
E000
FFC0
FFC0
FFC0
ENDCHAR
STARTCHAR florin
ENCODING 402
SWIDTH 456 0
DWIDTH 15 0
BBX 12 24 1 -5
BITMAP
0030
0030
01C0
01C0
01C0
0700
0700
1FF0
1FF0
1FF0
0700
0700
0700
0700
0700
0700
0700
0700
0700
1800
1800
E000
E000
E000
ENDCHAR
STARTCHAR Ohorn
ENCODING 416
SWIDTH 547 0
DWIDTH 18 0
BBX 17 22 1 0
BITMAP
000380
000380
000380
1FCE00
1FCE00
E03000
E03000
E03000
E03000
E03000
E03000
E03000
E03000
E03000
E03000
E03000
E03000
E03000
E03000
FFF000
1FC000
1FC000
ENDCHAR
STARTCHAR ohorn
ENCODING 417
SWIDTH 473 0
DWIDTH 15 0
BBX 15 17 1 0
BITMAP
000E
000E
000E
1F30
1F30
E1C0
E1C0
E1C0
E1C0
E1C0
E1C0
E1C0
E1C0
E1C0
FFC0
1F00
1F00
ENDCHAR
STARTCHAR Uhorn
ENCODING 431
SWIDTH 544 0
DWIDTH 17 0
BBX 17 22 1 0
BITMAP
000380
000380
000380
E03E00
E03E00
E03000
E03000
E03000
E03000
E03000
E03000
E03000
E03000
E03000
E03000
E03000
E03000
E03000
E03000
FFF000
1FC000
1FC000
ENDCHAR
STARTCHAR uhorn
ENCODING 432
SWIDTH 475 0
DWIDTH 15 0
BBX 15 17 1 0
BITMAP
000E
000E
000E
E1F0
E1F0
E1C0
E1C0
E1C0
E1C0
E1C0
E1C0
E1C0
E1C0
E1C0
FFC0
1FC0
1FC0
ENDCHAR
STARTCHAR Scommaaccent
ENCODING 536
SWIDTH 456 0
DWIDTH 15 0
BBX 12 26 1 -7
BITMAP
1FC0
1FC0
E030
E030
E030
E000
E000
1FC0
1FC0
1FF0
0030
0030
E030
E030
E030
E030
FFF0
1FC0
1FC0
0000
0000
0600
0600
0600
1800
1800
ENDCHAR
STARTCHAR scommaaccent
ENCODING 537
SWIDTH 372 0
DWIDTH 12 0
BBX 10 21 1 -7
BITMAP
1F00
1F00
E000
E000
FF00
1F00
1F00
01C0
01C0
01C0
01C0
FFC0
FF00
FF00
0000
0000
1C00
1C00
1C00
6000
6000
ENDCHAR
STARTCHAR uni021A
ENCODING 538
SWIDTH 409 0
DWIDTH 13 0
BBX 12 26 1 -7
BITMAP
FFF0
FFF0
0E00
0E00
0E00
0E00
0E00
0E00
0E00
0E00
0E00
0E00
0E00
0E00
0E00
0E00
0E00
0E00
0E00
0000
0000
0E00
0E00
0E00
3000
3000
ENDCHAR
STARTCHAR uni021B
ENCODING 539
SWIDTH 284 0
DWIDTH 9 0
BBX 7 26 1 -7
BITMAP
38
38
38
38
38
FE
FE
38
38
38
38
38
38
38
38
38
3E
0E
0E
00
00
38
38
38
C0
C0
ENDCHAR
STARTCHAR circumflex
ENCODING 710
SWIDTH 308 0
DWIDTH 10 0
BBX 8 5 1 17
BITMAP
18
18
18
E7
E7
ENDCHAR
STARTCHAR caron
ENCODING 711
SWIDTH 308 0
DWIDTH 10 0
BBX 8 5 1 17
BITMAP
E7
E7
E7
18
18
ENDCHAR
STARTCHAR uni02C9
ENCODING 713
SWIDTH 382 0
DWIDTH 12 0
BBX 10 2 1 17
BITMAP
FFC0
FFC0
ENDCHAR
STARTCHAR breve
ENCODING 728
SWIDTH 382 0
DWIDTH 12 0
BBX 10 5 1 17
BITMAP
E1C0
E1C0
E1C0
1F00
1F00
ENDCHAR
STARTCHAR dotaccent
ENCODING 729
SWIDTH 160 0
DWIDTH 5 0
BBX 3 2 1 17
BITMAP
E0
E0
ENDCHAR
STARTCHAR ring
ENCODING 730
SWIDTH 308 0
DWIDTH 10 0
BBX 8 7 1 17
BITMAP
18
18
FF
E7
E7
18
18
ENDCHAR
STARTCHAR ogonek
ENCODING 731
SWIDTH 308 0
DWIDTH 10 0
BBX 8 7 1 -7
BITMAP
18
18
E0
E0
E0
1F
1F
ENDCHAR
STARTCHAR tilde
ENCODING 732
SWIDTH 382 0
DWIDTH 12 0
BBX 10 5 1 17
BITMAP
19C0
19C0
19C0
E700
E700
ENDCHAR
STARTCHAR hungarumlaut
ENCODING 733
SWIDTH 456 0
DWIDTH 15 0
BBX 12 7 0 17
BITMAP
1830
1830
1830
1830
1830
E1C0
E1C0
ENDCHAR
STARTCHAR tildecomb
ENCODING 771
SWIDTH 308 0
DWIDTH 10 0
BBX 8 9 1 17
BITMAP
FF
FF
00
00
18
18
18
E7
E7
ENDCHAR
STARTCHAR hookabovecomb
ENCODING 777
SWIDTH 308 0
DWIDTH 10 0
BBX 8 7 1 17
BITMAP
F8
F8
FF
07
07
18
18
ENDCHAR
STARTCHAR dotbelowcomb
ENCODING 803
SWIDTH 160 0
DWIDTH 5 0
BBX 3 3 1 -7
BITMAP
E0
E0
E0
ENDCHAR
STARTCHAR commaaccent
ENCODING 806
SWIDTH 234 0
DWIDTH 7 0
BBX 5 5 1 -7
BITMAP
18
18
18
E0
E0
ENDCHAR
STARTCHAR uni037E
ENCODING 894
SWIDTH 234 0
DWIDTH 7 0
BBX 5 17 1 -5
BITMAP
18
18
18
00
00
00
00
00
00
18
18
18
18
18
E0
E0
E0
ENDCHAR
STARTCHAR tonos
ENCODING 900
SWIDTH 160 0
DWIDTH 5 0
BBX 3 5 1 18
BITMAP
E0
E0
E0
E0
E0
ENDCHAR
STARTCHAR dieresistonos
ENCODING 901
SWIDTH 456 0
DWIDTH 15 0
BBX 12 5 1 18
BITMAP
0700
0700
E730
E730
E730
ENDCHAR
STARTCHAR Alphatonos
ENCODING 902
SWIDTH 530 0
DWIDTH 17 0
BBX 16 23 0 0
BITMAP
E000
E000
E000
E000
E3E0
03E0
03E0
03E0
03E0
0C18
0C18
0C18
0C18
0FF8
0FF8
0FF8
7007
7007
7007
7007
7007
7007
7007
ENDCHAR
STARTCHAR Epsilontonos
ENCODING 904
SWIDTH 493 0
DWIDTH 16 0
BBX 15 23 0 0
BITMAP
E000
E000
E000
E000
E7FE
07FE
0700
0700
0700
0700
0700
07FE
07FE
07FE
0700
0700
0700
0700
0700
0700
07FE
07FE
07FE
ENDCHAR
STARTCHAR Etatonos
ENCODING 905
SWIDTH 561 0
DWIDTH 18 0
BBX 17 23 0 0
BITMAP
E00000
E00000
E00000
E00000
E60380
060380
060380
060380
060380
060380
060380
07FF80
07FF80
07FF80
060380
060380
060380
060380
060380
060380
060380
060380
060380
ENDCHAR
STARTCHAR Iotatonos
ENCODING 906
SWIDTH 263 0
DWIDTH 8 0
BBX 7 23 0 0
BITMAP
E0
E0
E0
E0
E6
06
06
06
06
06
06
06
06
06
06
06
06
06
06
06
06
06
06
ENDCHAR
STARTCHAR Omicrontonos
ENCODING 908
SWIDTH 536 0
DWIDTH 17 0
BBX 16 23 0 0
BITMAP
E000
E000
E000
E000
E3FC
03FC
0C07
0C07
0C07
0C07
0C07
0C07
0C07
0C07
0C07
0C07
0C07
0C07
0C07
0C07
0FFF
03FC
03FC
ENDCHAR
STARTCHAR Upsilontonos
ENCODING 910
SWIDTH 551 0
DWIDTH 18 0
BBX 16 23 0 0
BITMAP
E000
E000
E000
E000
EE03
0E03
019C
019C
019C
019C
019C
0070
0070
0070
0070
0070
0070
0070
0070
0070
0070
0070
0070
ENDCHAR
STARTCHAR Omegatonos
ENCODING 911
SWIDTH 513 0
DWIDTH 16 0
BBX 15 23 0 0
BITMAP
E000
E000
E000
E000
E7F8
07F8
1C06
1C06
1C06
1C06
1C06
1C06
1C06
1C06
1C06
1C06
0738
0738
0738
0738
1F3E
1F3E
1F3E
ENDCHAR
STARTCHAR iotadieresistonos
ENCODING 912
SWIDTH 169 0
DWIDTH 5 0
BBX 12 23 -3 0
BITMAP
0E00
0E00
CE70
CE70
CE70
0000
0000
0000
0000
0E00
0E00
0E00
0E00
0E00
0E00
0E00
0E00
0E00
0E00
0E00
0E00
0E00
0E00
ENDCHAR
STARTCHAR Alpha
ENCODING 913
SWIDTH 530 0
DWIDTH 17 0
BBX 15 19 1 0
BITMAP
07C0
07C0
07C0
07C0
07C0
1830
1830
1830
1830
1FF0
1FF0
1FF0
E00E
E00E
E00E
E00E
E00E
E00E
E00E
ENDCHAR
STARTCHAR Beta
ENCODING 914
SWIDTH 456 0
DWIDTH 15 0
BBX 12 19 1 0
BITMAP
FFC0
FFC0
E030
E030
E030
E030
E030
FFC0
FFC0
FFF0
E030
E030
E030
E030
E030
E030
FFF0
FFC0
FFC0
ENDCHAR
STARTCHAR Gamma
ENCODING 915
SWIDTH 365 0
DWIDTH 12 0
BBX 10 19 1 0
BITMAP
FFC0
FFC0
E000
E000
E000
E000
E000
E000
E000
E000
E000
E000
E000
E000
E000
E000
E000
E000
E000
ENDCHAR
STARTCHAR Delta
ENCODING 916
SWIDTH 530 0
DWIDTH 17 0
BBX 15 19 1 0
BITMAP
07C0
07C0
07C0
07C0
07C0
1830
1830
1830
1830
1830
1830
1830
E00E
E00E
E00E
E00E
FFFE
FFFE
FFFE
ENDCHAR
STARTCHAR Epsilon
ENCODING 917
SWIDTH 377 0
DWIDTH 12 0
BBX 10 19 1 0
BITMAP
FFC0
FFC0
E000
E000
E000
E000
E000
FFC0
FFC0
FFC0
E000
E000
E000
E000
E000
E000
FFC0
FFC0
FFC0
ENDCHAR
STARTCHAR Zeta
ENCODING 918
SWIDTH 382 0
DWIDTH 12 0
BBX 10 19 1 0
BITMAP
FFC0
FFC0
01C0
01C0
01C0
0700
0700
0700
0700
1F00
1800
1800
1800
1800
E000
E000
FFC0
FFC0
FFC0
ENDCHAR
STARTCHAR Eta
ENCODING 919
SWIDTH 456 0
DWIDTH 15 0
BBX 12 19 1 0
BITMAP
E030
E030
E030
E030
E030
E030
E030
FFF0
FFF0
FFF0
E030
E030
E030
E030
E030
E030
E030
E030
E030
ENDCHAR
STARTCHAR Theta
ENCODING 920
SWIDTH 456 0
DWIDTH 15 0
BBX 12 19 1 0
BITMAP
1FC0
1FC0
E030
E030
E030
E030
E030
FFF0
FFF0
FFF0
E030
E030
E030
E030
E030
E030
FFF0
1FC0
1FC0
ENDCHAR
STARTCHAR Iota
ENCODING 921
SWIDTH 160 0
DWIDTH 5 0
BBX 3 19 1 0
BITMAP
E0
E0
E0
E0
E0
E0
E0
E0
E0
E0
E0
E0
E0
E0
E0
E0
E0
E0
E0
ENDCHAR
STARTCHAR Kappa
ENCODING 922
SWIDTH 438 0
DWIDTH 14 0
BBX 12 19 1 0
BITMAP
E1C0
E1C0
E700
E700
E700
F800
F800
E700
E700
E700
E700
E700
E1C0
E1C0
E1C0
E1C0
E1F0
E030
E030
ENDCHAR
STARTCHAR Lambda
ENCODING 923
SWIDTH 517 0
DWIDTH 17 0
BBX 14 19 1 0
BITMAP
07C0
07C0
07C0
07C0
07C0
3830
3830
3830
3830
3830
3830
3830
E00C
E00C
E00C
E00C
E00C
E00C
E00C
ENDCHAR
STARTCHAR Mu
ENCODING 924
SWIDTH 604 0
DWIDTH 19 0
BBX 17 19 1 0
BITMAP
E00380
E00380
E00380
E00380
E00380
F80F80
F80F80
F80F80
F80F80
FF3F80
E73380
E73380
E73380
E73380
E1C380
E1C380
E1C380
E1C380
E1C380
ENDCHAR
STARTCHAR Nu
ENCODING 925
SWIDTH 456 0
DWIDTH 15 0
BBX 12 19 1 0
BITMAP
E030
E030
F830
F830
F830
F830
F830
E730
E730
E730
E730
E730
E1F0
E1F0
E1F0
E1F0
E1F0
E030
E030
ENDCHAR
STARTCHAR Xi
ENCODING 926
SWIDTH 456 0
DWIDTH 15 0
BBX 12 19 1 0
BITMAP
FFF0
FFF0
0000
0000
0000
0000
0000
FFF0
FFF0
FFF0
0000
0000
0000
0000
0000
0000
FFF0
FFF0
FFF0
ENDCHAR
STARTCHAR Omicron
ENCODING 927
SWIDTH 456 0
DWIDTH 15 0
BBX 12 19 1 0
BITMAP
1FC0
1FC0
E030
E030
E030
E030
E030
E030
E030
E030
E030
E030
E030
E030
E030
E030
FFF0
1FC0
1FC0
ENDCHAR
STARTCHAR Pi
ENCODING 928
SWIDTH 456 0
DWIDTH 15 0
BBX 12 19 1 0
BITMAP
FFF0
FFF0
E030
E030
E030
E030
E030
E030
E030
E030
E030
E030
E030
E030
E030
E030
E030
E030
E030
ENDCHAR
STARTCHAR Rho
ENCODING 929
SWIDTH 456 0
DWIDTH 15 0
BBX 12 19 1 0
BITMAP
FFC0
FFC0
E030
E030
E030
E030
E030
FFC0
FFC0
FFC0
E000
E000
E000
E000
E000
E000
E000
E000
E000
ENDCHAR
STARTCHAR Sigma
ENCODING 931
SWIDTH 378 0
DWIDTH 12 0
BBX 10 19 1 0
BITMAP
FFC0
FFC0
E000
E000
E000
1800
1800
0700
0700
1F00
1800
1800
E000
E000
E000
E000
FFC0
FFC0
FFC0
ENDCHAR
STARTCHAR Tau
ENCODING 932
SWIDTH 409 0
DWIDTH 13 0
BBX 12 19 1 0
BITMAP
FFF0
FFF0
0E00
0E00
0E00
0E00
0E00
0E00
0E00
0E00
0E00
0E00
0E00
0E00
0E00
0E00
0E00
0E00
0E00
ENDCHAR
STARTCHAR Upsilon
ENCODING 933
SWIDTH 456 0
DWIDTH 15 0
BBX 12 19 1 0
BITMAP
E030
E030
19C0
19C0
19C0
19C0
19C0
0700
0700
0700
0700
0700
0700
0700
0700
0700
0700
0700
0700
ENDCHAR
STARTCHAR Phi
ENCODING 934
SWIDTH 581 0
DWIDTH 19 0
BBX 17 19 1 0
BITMAP
3FFC00
3FFC00
C1C380
C1C380
C1C380
C1C380
C1C380
C1C380
C1C380
C1C380
C1C380
C1C380
3FFC00
3FFC00
01C000
01C000
01C000
01C000
01C000
ENDCHAR
STARTCHAR Chi
ENCODING 935
SWIDTH 456 0
DWIDTH 15 0
BBX 12 19 1 0
BITMAP
E030
E030
19C0
19C0
19C0
19C0
19C0
0700
0700
1FC0
19C0
19C0
19C0
19C0
E030
E030
E030
E030
E030
ENDCHAR
STARTCHAR Psi
ENCODING 936
SWIDTH 456 0
DWIDTH 15 0
BBX 12 19 1 0
BITMAP
E730
E730
E730
E730
E730
E730
E730
E730
E730
E730
E730
E730
1FC0
1FC0
0700
0700
0700
0700
0700
ENDCHAR
STARTCHAR Omega
ENCODING 937
SWIDTH 456 0
DWIDTH 15 0
BBX 12 19 1 0
BITMAP
1FC0
1FC0
E030
E030
E030
E030
E030
E030
E030
E030
E030
E030
19C0
19C0
19C0
19C0
F9F0
F9F0
F9F0
ENDCHAR
STARTCHAR Iotadieresis
ENCODING 938
SWIDTH 160 0
DWIDTH 5 0
BBX 7 24 -1 0
BITMAP
E6
E6
00
00
00
38
38
38
38
38
38
38
38
38
38
38
38
38
38
38
38
38
38
38
ENDCHAR
STARTCHAR Upsilondieresis
ENCODING 939
SWIDTH 456 0
DWIDTH 15 0
BBX 12 24 1 0
BITMAP
19C0
19C0
0000
0000
0000
E030
E030
19C0
19C0
19C0
19C0
19C0
0700
0700
0700
0700
0700
0700
0700
0700
0700
0700
0700
0700
ENDCHAR
STARTCHAR alphatonos
ENCODING 940
SWIDTH 442 0
DWIDTH 14 0
BBX 12 23 1 0
BITMAP
0600
0600
0600
0600
0600
0000
0000
0000
0000
3E00
3E00
01C0
01C0
3FC0
3FC0
3FC0
E1C0
E1C0
E1C0
E1C0
FFF0
3E30
3E30
ENDCHAR
STARTCHAR epsilontonos
ENCODING 941
SWIDTH 368 0
DWIDTH 12 0
BBX 10 23 1 0
BITMAP
0C00
0C00
0C00
0C00
0C00
0000
0000
0000
0000
3E00
3E00
E1C0
E1C0
F9C0
3800
3800
E000
E000
E1C0
E1C0
FFC0
3E00
3E00
ENDCHAR
STARTCHAR etatonos
ENCODING 942
SWIDTH 380 0
DWIDTH 12 0
BBX 10 23 1 0
BITMAP
0C00
0C00
0C00
0C00
0C00
0000
0000
0000
0000
FF00
FF00
E1C0
E1C0
E1C0
E1C0
E1C0
E1C0
E1C0
E1C0
E1C0
E1C0
E1C0
E1C0
ENDCHAR
STARTCHAR iotatonos
ENCODING 943
SWIDTH 169 0
DWIDTH 5 0
BBX 3 23 1 0
BITMAP
E0
E0
E0
E0
E0
00
00
00
00
E0
E0
E0
E0
E0
E0
E0
E0
E0
E0
E0
E0
E0
E0
ENDCHAR
STARTCHAR upsilondieresistonos
ENCODING 944
SWIDTH 382 0
DWIDTH 12 0
BBX 12 23 0 0
BITMAP
0600
0600
E630
E630
E630
0000
0000
0000
0000
70E0
70E0
70E0
70E0
70E0
70E0
70E0
70E0
70E0
70E0
70E0
7FE0
0F80
0F80
ENDCHAR
STARTCHAR alpha
ENCODING 945
SWIDTH 443 0
DWIDTH 14 0
BBX 12 14 1 0
BITMAP
3E30
3E30
E1C0
E1C0
E1C0
E1C0
E1C0
E1C0
E1C0
E1C0
E1C0
FFF0
3E30
3E30
ENDCHAR
STARTCHAR beta
ENCODING 946
SWIDTH 382 0
DWIDTH 12 0
BBX 10 19 1 0
BITMAP
1F00
1F00
E1C0
E1C0
E1C0
E1C0
E1C0
E700
E700
E7C0
E1C0
E1C0
E1C0
E1C0
E1C0
E1C0
E7C0
E700
E700
ENDCHAR
STARTCHAR gamma
ENCODING 947
SWIDTH 438 0
DWIDTH 14 0
BBX 12 21 1 -7
BITMAP
E070
E070
E070
E070
F9F0
39C0
39C0
39C0
39C0
0600
0600
0600
0600
0600
0600
0600
0600
0600
0600
0600
0600
ENDCHAR
STARTCHAR delta
ENCODING 948
SWIDTH 483 0
DWIDTH 15 0
BBX 14 17 1 0
BITMAP
3F9C
3F9C
3F9C
C1F0
C1F0
0E70
0E70
0E70
0E70
0E70
3070
3070
3070
3070
0FF0
0F80
0F80
ENDCHAR
STARTCHAR epsilon
ENCODING 949
SWIDTH 368 0
DWIDTH 12 0
BBX 10 14 1 0
BITMAP
3E00
3E00
E1C0
E1C0
F9C0
3800
3800
E000
E000
E1C0
E1C0
FFC0
3E00
3E00
ENDCHAR
STARTCHAR zeta
ENCODING 950
SWIDTH 378 0
DWIDTH 12 0
BBX 10 26 1 -7
BITMAP
FFC0
FFC0
01C0
01C0
01C0
0600
0600
1800
1800
F800
E000
E000
E000
E000
E000
E000
FFC0
1FC0
1FC0
01C0
01C0
01C0
01C0
01C0
0600
0600
ENDCHAR
STARTCHAR eta
ENCODING 951
SWIDTH 380 0
DWIDTH 12 0
BBX 10 14 1 0
BITMAP
FF00
FF00
E1C0
E1C0
E1C0
E1C0
E1C0
E1C0
E1C0
E1C0
E1C0
E1C0
E1C0
E1C0
ENDCHAR
STARTCHAR theta
ENCODING 952
SWIDTH 382 0
DWIDTH 12 0
BBX 10 19 1 0
BITMAP
1F00
1F00
E1C0
E1C0
E1C0
E1C0
E1C0
FFC0
FFC0
FFC0
E1C0
E1C0
E1C0
E1C0
E1C0
E1C0
FFC0
1F00
1F00
ENDCHAR
STARTCHAR iota
ENCODING 953
SWIDTH 169 0
DWIDTH 5 0
BBX 3 14 1 0
BITMAP
E0
E0
E0
E0
E0
E0
E0
E0
E0
E0
E0
E0
E0
E0
ENDCHAR
STARTCHAR kappa
ENCODING 954
SWIDTH 373 0
DWIDTH 12 0
BBX 10 14 1 0
BITMAP
E1C0
E1C0
E700
E700
FF00
F800
F800
F800
F800
E700
E700
E7C0
E1C0
E1C0
ENDCHAR
STARTCHAR lambda
ENCODING 955
SWIDTH 382 0
DWIDTH 12 0
BBX 10 19 1 0
BITMAP
1F00
1F00
E1C0
E1C0
E1C0
01C0
01C0
1FC0
1FC0
FFC0
E1C0
E1C0
E1C0
E1C0
E1C0
E1C0
E1C0
E1C0
E1C0
ENDCHAR
STARTCHAR mu
ENCODING 956
SWIDTH 382 0
DWIDTH 12 0
BBX 10 21 1 -7
BITMAP
E1C0
E1C0
E1C0
E1C0
E1C0
E1C0
E1C0
E1C0
E1C0
E1C0
E1C0
FFC0
FFC0
FFC0
E000
E000
E000
E000
E000
E000
E000
ENDCHAR
STARTCHAR nu
ENCODING 957
SWIDTH 430 0
DWIDTH 14 0
BBX 12 14 1 0
BITMAP
C070
C070
C070
C070
F9F0
3980
3980
3980
3980
0E00
0E00
0E00
0E00
0E00
ENDCHAR
STARTCHAR xi
ENCODING 958
SWIDTH 382 0
DWIDTH 12 0
BBX 10 24 1 -5
BITMAP
1F00
1F00
E1C0
E1C0
E1C0
E000
E000
1F00
1F00
FF00
E000
E000
E000
E000
E000
E000
FFC0
1FC0
1FC0
01C0
01C0
0700
0700
0700
ENDCHAR
STARTCHAR omicron
ENCODING 959
SWIDTH 373 0
DWIDTH 12 0
BBX 10 14 1 0
BITMAP
3E00
3E00
E1C0
E1C0
E1C0
E1C0
E1C0
E1C0
E1C0
E1C0
E1C0
FFC0
3E00
3E00
ENDCHAR
STARTCHAR pi
ENCODING 960
SWIDTH 382 0
DWIDTH 12 0
BBX 10 14 1 0
BITMAP
FFC0
FFC0
E1C0
E1C0
E1C0
E1C0
E1C0
E1C0
E1C0
E1C0
E1C0
E1C0
E1C0
E1C0
ENDCHAR
STARTCHAR rho
ENCODING 961
SWIDTH 382 0
DWIDTH 12 0
BBX 10 21 1 -7
BITMAP
1F00
1F00
E1C0
E1C0
E1C0
E1C0
E1C0
E1C0
E1C0
E1C0
E1C0
FFC0
FF00
FF00
E000
E000
E000
E000
E000
E000
E000
ENDCHAR
STARTCHAR sigma1
ENCODING 962
SWIDTH 382 0
DWIDTH 12 0
BBX 10 19 1 -5
BITMAP
1F00
1F00
E1C0
E1C0
E1C0
E000
E000
E000
E000
E000
E000
FFC0
1FC0
1FC0
01C0
01C0
0700
0700
0700
ENDCHAR
STARTCHAR sigma
ENCODING 963
SWIDTH 420 0
DWIDTH 13 0
BBX 12 14 1 0
BITMAP
1FF0
1FF0
E1C0
E1C0
E1C0
E1C0
E1C0
E1C0
E1C0
E1C0
E1C0
FFC0
1F00
1F00
ENDCHAR
STARTCHAR tau
ENCODING 964
SWIDTH 402 0
DWIDTH 13 0
BBX 12 14 0 0
BITMAP
FFF0
FFF0
0700
0700
0700
0700
0700
0700
0700
0700
0700
0700
0700
0700
ENDCHAR
STARTCHAR upsilon
ENCODING 965
SWIDTH 382 0
DWIDTH 12 0
BBX 10 14 1 0
BITMAP
E1C0
E1C0
E1C0
E1C0
E1C0
E1C0
E1C0
E1C0
E1C0
E1C0
E1C0
FFC0
1F00
1F00
ENDCHAR
STARTCHAR phi
ENCODING 966
SWIDTH 456 0
DWIDTH 15 0
BBX 12 21 1 -7
BITMAP
1FC0
1FC0
E730
E730
E730
E730
E730
E730
E730
E730
E730
FFF0
1FC0
1FC0
0700
0700
0700
0700
0700
0700
0700
ENDCHAR
STARTCHAR chi
ENCODING 967
SWIDTH 382 0
DWIDTH 12 0
BBX 10 14 1 0
BITMAP
E1C0
E1C0
E1C0
E1C0
FFC0
1F00
1F00
E1C0
E1C0
E1C0
E1C0
E1C0
E1C0
E1C0
ENDCHAR
STARTCHAR psi
ENCODING 968
SWIDTH 456 0
DWIDTH 15 0
BBX 12 21 1 -7
BITMAP
E730
E730
E730
E730
E730
E730
E730
E730
E730
E730
E730
FFF0
1FC0
1FC0
0700
0700
0700
0700
0700
0700
0700
ENDCHAR
STARTCHAR omega
ENCODING 969
SWIDTH 456 0
DWIDTH 15 0
BBX 12 14 1 0
BITMAP
E730
E730
E730
E730
E730
E730
E730
E730
E730
E730
E730
FFF0
19C0
19C0
ENDCHAR
STARTCHAR iotadieresis
ENCODING 970
SWIDTH 169 0
DWIDTH 5 0
BBX 7 19 -1 0
BITMAP
E6
E6
00
00
00
38
38
38
38
38
38
38
38
38
38
38
38
38
38
ENDCHAR
STARTCHAR upsilondieresis
ENCODING 971
SWIDTH 382 0
DWIDTH 12 0
BBX 10 19 1 0
BITMAP
7380
7380
0000
0000
0000
E1C0
E1C0
E1C0
E1C0
E1C0
E1C0
E1C0
E1C0
E1C0
E1C0
E1C0
FFC0
1F00
1F00
ENDCHAR
STARTCHAR omicrontonos
ENCODING 972
SWIDTH 373 0
DWIDTH 12 0
BBX 10 23 1 0
BITMAP
0C00
0C00
0C00
0C00
0C00
0000
0000
0000
0000
3E00
3E00
E1C0
E1C0
E1C0
E1C0
E1C0
E1C0
E1C0
E1C0
E1C0
FFC0
3E00
3E00
ENDCHAR
STARTCHAR upsilontonos
ENCODING 973
SWIDTH 382 0
DWIDTH 12 0
BBX 10 23 1 0
BITMAP
0C00
0C00
0C00
0C00
0C00
0000
0000
0000
0000
E1C0
E1C0
E1C0
E1C0
E1C0
E1C0
E1C0
E1C0
E1C0
E1C0
E1C0
FFC0
1F00
1F00
ENDCHAR
STARTCHAR omegatonos
ENCODING 974
SWIDTH 456 0
DWIDTH 15 0
BBX 12 23 1 0
BITMAP
0700
0700
0700
0700
0700
0000
0000
0000
0000
E730
E730
E730
E730
E730
E730
E730
E730
E730
E730
E730
FFF0
19C0
19C0
ENDCHAR
STARTCHAR Wgrave
ENCODING 7808
SWIDTH 604 0
DWIDTH 19 0
BBX 17 27 1 0
BITMAP
038000
038000
038000
006000
006000
000000
000000
000000
E1C380
E1C380
E1C380
E1C380
E1C380
E1C380
E1C380
19CE00
19CE00
19CE00
19CE00
19CE00
19CE00
19CE00
073000
073000
073000
073000
073000
ENDCHAR
STARTCHAR wgrave
ENCODING 7809
SWIDTH 576 0
DWIDTH 18 0
BBX 17 22 1 0
BITMAP
030000
030000
030000
00E000
00E000
000000
000000
000000
C00380
C00380
C00380
C00380
F98F80
398C00
398C00
398C00
398C00
0E7000
0E7000
0E7000
0E7000
0E7000
ENDCHAR
STARTCHAR Wacute
ENCODING 7810
SWIDTH 604 0
DWIDTH 19 0
BBX 17 27 1 0
BITMAP
006000
006000
006000
038000
038000
000000
000000
000000
E1C380
E1C380
E1C380
E1C380
E1C380
E1C380
E1C380
19CE00
19CE00
19CE00
19CE00
19CE00
19CE00
19CE00
073000
073000
073000
073000
073000
ENDCHAR
STARTCHAR wacute
ENCODING 7811
SWIDTH 576 0
DWIDTH 18 0
BBX 17 22 1 0
BITMAP
00E000
00E000
00E000
030000
030000
000000
000000
000000
C00380
C00380
C00380
C00380
F98F80
398C00
398C00
398C00
398C00
0E7000
0E7000
0E7000
0E7000
0E7000
ENDCHAR
STARTCHAR Wdieresis
ENCODING 7812
SWIDTH 604 0
DWIDTH 19 0
BBX 17 24 1 0
BITMAP
073000
073000
000000
000000
000000
E1C380
E1C380
E1C380
E1C380
E1C380
E1C380
E1C380
19CE00
19CE00
19CE00
19CE00
19CE00
19CE00
19CE00
073000
073000
073000
073000
073000
ENDCHAR
STARTCHAR wdieresis
ENCODING 7813
SWIDTH 576 0
DWIDTH 18 0
BBX 17 19 1 0
BITMAP
067000
067000
000000
000000
000000
C00380
C00380
C00380
C00380
F98F80
398C00
398C00
398C00
398C00
0E7000
0E7000
0E7000
0E7000
0E7000
ENDCHAR
STARTCHAR uni1EA0
ENCODING 7840
SWIDTH 530 0
DWIDTH 17 0
BBX 15 26 1 -7
BITMAP
07C0
07C0
07C0
07C0
07C0
1830
1830
1830
1830
1FF0
1FF0
1FF0
E00E
E00E
E00E
E00E
E00E
E00E
E00E
0000
0000
0000
0000
0380
0380
0380
ENDCHAR
STARTCHAR uni1EA1
ENCODING 7841
SWIDTH 442 0
DWIDTH 14 0
BBX 12 21 1 -7
BITMAP
3E00
3E00
01C0
01C0
3FC0
3FC0
3FC0
E1C0
E1C0
E1C0
E1C0
FFF0
3E30
3E30
0000
0000
0000
0000
0600
0600
0600
ENDCHAR
STARTCHAR uni1EA2
ENCODING 7842
SWIDTH 530 0
DWIDTH 17 0
BBX 15 29 1 0
BITMAP
0F80
0F80
0FE0
0060
0060
0380
0380
0000
0000
0000
07C0
07C0
07C0
07C0
07C0
1830
1830
1830
1830
1FF0
1FF0
1FF0
E00E
E00E
E00E
E00E
E00E
E00E
E00E
ENDCHAR
STARTCHAR uni1EA3
ENCODING 7843
SWIDTH 442 0
DWIDTH 14 0
BBX 12 24 1 0
BITMAP
3E00
3E00
3FC0
01C0
01C0
0600
0600
0000
0000
0000
3E00
3E00
01C0
01C0
3FC0
3FC0
3FC0
E1C0
E1C0
E1C0
E1C0
FFF0
3E30
3E30
ENDCHAR
STARTCHAR uni1EA4
ENCODING 7844
SWIDTH 530 0
DWIDTH 17 0
BBX 18 27 1 0
BITMAP
0380C0
0380C0
0380C0
0C6700
0C6700
000000
000000
000000
07C000
07C000
07C000
07C000
07C000
183000
183000
183000
183000
1FF000
1FF000
1FF000
E00E00
E00E00
E00E00
E00E00
E00E00
E00E00
E00E00
ENDCHAR
STARTCHAR uni1EA5
ENCODING 7845
SWIDTH 442 0
DWIDTH 14 0
BBX 16 22 1 0
BITMAP
0C07
0C07
0C07
7398
7398
0000
0000
0000
3E00
3E00
01C0
01C0
3FC0
3FC0
3FC0
E1C0
E1C0
E1C0
E1C0
FFF0
3E30
3E30
ENDCHAR
STARTCHAR uni1EA6
ENCODING 7846
SWIDTH 530 0
DWIDTH 17 0
BBX 18 27 -2 0
BITMAP
C07000
C07000
C07000
39CC00
39CC00
000000
000000
000000
00F800
00F800
00F800
00F800
00F800
030600
030600
030600
030600
03FE00
03FE00
03FE00
1C01C0
1C01C0
1C01C0
1C01C0
1C01C0
1C01C0
1C01C0
ENDCHAR
STARTCHAR uni1EA7
ENCODING 7847
SWIDTH 442 0
DWIDTH 14 0
BBX 17 22 -4 0
BITMAP
C07000
C07000
C07000
319C00
319C00
000000
000000
000000
01F000
01F000
000E00
000E00
01FE00
01FE00
01FE00
070E00
070E00
070E00
070E00
07FF80
01F180
01F180
ENDCHAR
STARTCHAR uni1EA8
ENCODING 7848
SWIDTH 530 0
DWIDTH 17 0
BBX 18 29 1 0
BITMAP
001F00
001F00
039FC0
0380C0
0380C0
0CE700
0CE700
000000
000000
000000
07C000
07C000
07C000
07C000
07C000
183000
183000
183000
183000
1FF000
1FF000
1FF000
E00E00
E00E00
E00E00
E00E00
E00E00
E00E00
E00E00
ENDCHAR
STARTCHAR uni1EA9
ENCODING 7849
SWIDTH 442 0
DWIDTH 14 0
BBX 16 24 1 0
BITMAP
00F8
00F8
0CFF
0C07
0C07
7398
7398
0000
0000
0000
3E00
3E00
01C0
01C0
3FC0
3FC0
3FC0
E1C0
E1C0
E1C0
E1C0
FFF0
3E30
3E30
ENDCHAR
STARTCHAR uni1EAA
ENCODING 7850
SWIDTH 530 0
DWIDTH 17 0
BBX 15 31 1 0
BITMAP
0FE0
0FE0
0000
0000
0380
0380
0380
0C60
0C60
0000
0000
0000
07C0
07C0
07C0
07C0
07C0
1830
1830
1830
1830
1FF0
1FF0
1FF0
E00E
E00E
E00E
E00E
E00E
E00E
E00E
ENDCHAR
STARTCHAR uni1EAB
ENCODING 7851
SWIDTH 442 0
DWIDTH 14 0
BBX 12 26 1 0
BITMAP
3F80
3F80
0000
0000
0C00
0C00
0C00
3380
3380
0000
0000
0000
3E00
3E00
01C0
01C0
3FC0
3FC0
3FC0
E1C0
E1C0
E1C0
E1C0
FFF0
3E30
3E30
ENDCHAR
STARTCHAR uni1EAC
ENCODING 7852
SWIDTH 530 0
DWIDTH 17 0
BBX 15 34 1 -7
BITMAP
0380
0380
0380
0C60
0C60
0000
0000
0000
07C0
07C0
07C0
07C0
07C0
1830
1830
1830
1830
1FF0
1FF0
1FF0
E00E
E00E
E00E
E00E
E00E
E00E
E00E
0000
0000
0000
0000
0380
0380
0380
ENDCHAR
STARTCHAR uni1EAD
ENCODING 7853
SWIDTH 442 0
DWIDTH 14 0
BBX 12 29 1 -7
BITMAP
0E00
0E00
0E00
3180
3180
0000
0000
0000
3E00
3E00
01C0
01C0
3FC0
3FC0
3FC0
E1C0
E1C0
E1C0
E1C0
FFF0
3E30
3E30
0000
0000
0000
0000
0600
0600
0600
ENDCHAR
STARTCHAR uni1EAE
ENCODING 7854
SWIDTH 530 0
DWIDTH 17 0
BBX 15 31 1 0
BITMAP
01C0
01C0
0700
0700
1F30
1830
1830
07C0
07C0
0000
0000
0000
07C0
07C0
07C0
07C0
07C0
1830
1830
1830
1830
1FF0
1FF0
1FF0
E00E
E00E
E00E
E00E
E00E
E00E
E00E
ENDCHAR
STARTCHAR uni1EAF
ENCODING 7855
SWIDTH 442 0
DWIDTH 14 0
BBX 12 26 1 0
BITMAP
0700
0700
1800
1800
F9C0
E1C0
E1C0
1F00
1F00
0000
0000
0000
3E00
3E00
01C0
01C0
3FC0
3FC0
3FC0
E1C0
E1C0
E1C0
E1C0
FFF0
3E30
3E30
ENDCHAR
STARTCHAR uni1EB0
ENCODING 7856
SWIDTH 530 0
DWIDTH 17 0
BBX 15 31 1 0
BITMAP
0700
0700
01C0
01C0
19F0
1830
1830
07C0
07C0
0000
0000
0000
07C0
07C0
07C0
07C0
07C0
1830
1830
1830
1830
1FF0
1FF0
1FF0
E00E
E00E
E00E
E00E
E00E
E00E
E00E
ENDCHAR
STARTCHAR uni1EB1
ENCODING 7857
SWIDTH 442 0
DWIDTH 14 0
BBX 12 26 1 0
BITMAP
3800
3800
0600
0600
E7C0
E1C0
E1C0
3E00
3E00
0000
0000
0000
3E00
3E00
01C0
01C0
3FC0
3FC0
3FC0
E1C0
E1C0
E1C0
E1C0
FFF0
3E30
3E30
ENDCHAR
STARTCHAR uni1EB2
ENCODING 7858
SWIDTH 530 0
DWIDTH 17 0
BBX 15 31 1 0
BITMAP
07C0
07C0
01C0
01C0
19F0
1830
1830
07C0
07C0
0000
0000
0000
07C0
07C0
07C0
07C0
07C0
1830
1830
1830
1830
1FF0
1FF0
1FF0
E00E
E00E
E00E
E00E
E00E
E00E
E00E
ENDCHAR
STARTCHAR uni1EB3
ENCODING 7859
SWIDTH 442 0
DWIDTH 14 0
BBX 12 26 1 0
BITMAP
1F00
1F00
0700
0700
E7C0
E1C0
E1C0
1F00
1F00
0000
0000
0000
3E00
3E00
01C0
01C0
3FC0
3FC0
3FC0
E1C0
E1C0
E1C0
E1C0
FFF0
3E30
3E30
ENDCHAR
STARTCHAR uni1EB4
ENCODING 7860
SWIDTH 530 0
DWIDTH 17 0
BBX 15 31 1 0
BITMAP
1FF0
1FF0
0000
0000
1830
1830
1830
07C0
07C0
0000
0000
0000
07C0
07C0
07C0
07C0
07C0
1830
1830
1830
1830
1FF0
1FF0
1FF0
E00E
E00E
E00E
E00E
E00E
E00E
E00E
ENDCHAR
STARTCHAR uni1EB5
ENCODING 7861
SWIDTH 442 0
DWIDTH 14 0
BBX 12 26 1 0
BITMAP
FFC0
FFC0
0000
0000
E1C0
E1C0
E1C0
3E00
3E00
0000
0000
0000
3E00
3E00
01C0
01C0
3FC0
3FC0
3FC0
E1C0
E1C0
E1C0
E1C0
FFF0
3E30
3E30
ENDCHAR
STARTCHAR uni1EB6
ENCODING 7862
SWIDTH 530 0
DWIDTH 17 0
BBX 15 34 1 -7
BITMAP
1830
1830
1830
07C0
07C0
0000
0000
0000
07C0
07C0
07C0
07C0
07C0
1830
1830
1830
1830
1FF0
1FF0
1FF0
E00E
E00E
E00E
E00E
E00E
E00E
E00E
0000
0000
0000
0000
0380
0380
0380
ENDCHAR
STARTCHAR uni1EB7
ENCODING 7863
SWIDTH 442 0
DWIDTH 14 0
BBX 12 29 1 -7
BITMAP
E1C0
E1C0
E1C0
1E00
1E00
0000
0000
0000
3E00
3E00
01C0
01C0
3FC0
3FC0
3FC0
E1C0
E1C0
E1C0
E1C0
FFF0
3E30
3E30
0000
0000
0000
0000
0600
0600
0600
ENDCHAR
STARTCHAR uni1EB8
ENCODING 7864
SWIDTH 377 0
DWIDTH 12 0
BBX 10 26 1 -7
BITMAP
FFC0
FFC0
E000
E000
E000
E000
E000
FFC0
FFC0
FFC0
E000
E000
E000
E000
E000
E000
FFC0
FFC0
FFC0
0000
0000
0000
0000
0C00
0C00
0C00
ENDCHAR
STARTCHAR uni1EB9
ENCODING 7865
SWIDTH 382 0
DWIDTH 12 0
BBX 10 21 1 -7
BITMAP
1F00
1F00
E1C0
E1C0
FFC0
FFC0
FFC0
E000
E000
E1C0
E1C0
FFC0
1F00
1F00
0000
0000
0000
0000
0C00
0C00
0C00
ENDCHAR
STARTCHAR uni1EBA
ENCODING 7866
SWIDTH 377 0
DWIDTH 12 0
BBX 10 29 1 0
BITMAP
7C00
7C00
7F80
0380
0380
0C00
0C00
0000
0000
0000
FFC0
FFC0
E000
E000
E000
E000
E000
FFC0
FFC0
FFC0
E000
E000
E000
E000
E000
E000
FFC0
FFC0
FFC0
ENDCHAR
STARTCHAR uni1EBB
ENCODING 7867
SWIDTH 382 0
DWIDTH 12 0
BBX 10 24 1 0
BITMAP
7C00
7C00
7F80
0380
0380
0C00
0C00
0000
0000
0000
1F00
1F00
E1C0
E1C0
FFC0
FFC0
FFC0
E000
E000
E1C0
E1C0
FFC0
1F00
1F00
ENDCHAR
STARTCHAR uni1EBC
ENCODING 7868
SWIDTH 377 0
DWIDTH 12 0
BBX 10 27 1 0
BITMAP
1CC0
1CC0
1CC0
6300
6300
0000
0000
0000
FFC0
FFC0
E000
E000
E000
E000
E000
FFC0
FFC0
FFC0
E000
E000
E000
E000
E000
E000
FFC0
FFC0
FFC0
ENDCHAR
STARTCHAR uni1EBD
ENCODING 7869
SWIDTH 382 0
DWIDTH 12 0
BBX 10 22 1 0
BITMAP
19C0
19C0
19C0
E700
E700
0000
0000
0000
1F00
1F00
E1C0
E1C0
FFC0
FFC0
FFC0
E000
E000
E1C0
E1C0
FFC0
1F00
1F00
ENDCHAR
STARTCHAR uni1EBE
ENCODING 7870
SWIDTH 377 0
DWIDTH 12 0
BBX 16 27 1 0
BITMAP
0C07
0C07
0C07
739C
739C
0000
0000
0000
FFC0
FFC0
E000
E000
E000
E000
E000
FFC0
FFC0
FFC0
E000
E000
E000
E000
E000
E000
FFC0
FFC0
FFC0
ENDCHAR
STARTCHAR uni1EBF
ENCODING 7871
SWIDTH 382 0
DWIDTH 12 0
BBX 16 22 1 0
BITMAP
0C07
0C07
0C07
7398
7398
0000
0000
0000
1F00
1F00
E1C0
E1C0
FFC0
FFC0
FFC0
E000
E000
E1C0
E1C0
FFC0
1F00
1F00
ENDCHAR
STARTCHAR uni1EC0
ENCODING 7872
SWIDTH 377 0
DWIDTH 12 0
BBX 15 27 -4 0
BITMAP
C070
C070
C070
399C
399C
0000
0000
0000
07FE
07FE
0700
0700
0700
0700
0700
07FE
07FE
07FE
0700
0700
0700
0700
0700
0700
07FE
07FE
07FE
ENDCHAR
STARTCHAR uni1EC1
ENCODING 7873
SWIDTH 382 0
DWIDTH 12 0
BBX 15 22 -4 0
BITMAP
C070
C070
C070
399C
399C
0000
0000
0000
00F8
00F8
070E
070E
07FE
07FE
07FE
0700
0700
070E
070E
07FE
00F8
00F8
ENDCHAR
STARTCHAR uni1EC2
ENCODING 7874
SWIDTH 377 0
DWIDTH 12 0
BBX 16 29 1 0
BITMAP
007C
007C
0E7F
0E03
0E03
339C
339C
0000
0000
0000
FFC0
FFC0
E000
E000
E000
E000
E000
FFC0
FFC0
FFC0
E000
E000
E000
E000
E000
E000
FFC0
FFC0
FFC0
ENDCHAR
STARTCHAR uni1EC3
ENCODING 7875
SWIDTH 382 0
DWIDTH 12 0
BBX 16 24 1 0
BITMAP
007C
007C
0C7F
0C07
0C07
739C
739C
0000
0000
0000
1F00
1F00
E1C0
E1C0
FFC0
FFC0
FFC0
E000
E000
E1C0
E1C0
FFC0
1F00
1F00
ENDCHAR
STARTCHAR uni1EC4
ENCODING 7876
SWIDTH 377 0
DWIDTH 12 0
BBX 10 31 1 0
BITMAP
3F80
3F80
0000
0000
0E00
0E00
0E00
3380
3380
0000
0000
0000
FFC0
FFC0
E000
E000
E000
E000
E000
FFC0
FFC0
FFC0
E000
E000
E000
E000
E000
E000
FFC0
FFC0
FFC0
ENDCHAR
STARTCHAR uni1EC5
ENCODING 7877
SWIDTH 382 0
DWIDTH 12 0
BBX 10 26 1 0
BITMAP
7F80
7F80
0000
0000
0C00
0C00
0C00
7380
7380
0000
0000
0000
1F00
1F00
E1C0
E1C0
FFC0
FFC0
FFC0
E000
E000
E1C0
E1C0
FFC0
1F00
1F00
ENDCHAR
STARTCHAR uni1EC6
ENCODING 7878
SWIDTH 377 0
DWIDTH 12 0
BBX 10 34 1 -7
BITMAP
0C00
0C00
0C00
7380
7380
0000
0000
0000
FFC0
FFC0
E000
E000
E000
E000
E000
FFC0
FFC0
FFC0
E000
E000
E000
E000
E000
E000
FFC0
FFC0
FFC0
0000
0000
0000
0000
0C00
0C00
0C00
ENDCHAR
STARTCHAR uni1EC7
ENCODING 7879
SWIDTH 382 0
DWIDTH 12 0
BBX 10 29 1 -7
BITMAP
0C00
0C00
0C00
7380
7380
0000
0000
0000
1F00
1F00
E1C0
E1C0
FFC0
FFC0
FFC0
E000
E000
E1C0
E1C0
FFC0
1F00
1F00
0000
0000
0000
0000
0C00
0C00
0C00
ENDCHAR
STARTCHAR uni1EC8
ENCODING 7880
SWIDTH 160 0
DWIDTH 5 0
BBX 7 29 -1 0
BITMAP
F8
F8
FE
06
06
38
38
00
00
00
38
38
38
38
38
38
38
38
38
38
38
38
38
38
38
38
38
38
38
ENDCHAR
STARTCHAR uni1EC9
ENCODING 7881
SWIDTH 169 0
DWIDTH 5 0
BBX 7 24 -1 0
BITMAP
F8
F8
FE
06
06
38
38
00
00
00
38
38
38
38
38
38
38
38
38
38
38
38
38
38
ENDCHAR
STARTCHAR uni1ECA
ENCODING 7882
SWIDTH 160 0
DWIDTH 5 0
BBX 3 26 1 -7
BITMAP
E0
E0
E0
E0
E0
E0
E0
E0
E0
E0
E0
E0
E0
E0
E0
E0
E0
E0
E0
00
00
00
00
E0
E0
E0
ENDCHAR
STARTCHAR uni1ECB
ENCODING 7883
SWIDTH 170 0
DWIDTH 5 0
BBX 3 26 1 -7
BITMAP
E0
E0
00
00
00
E0
E0
E0
E0
E0
E0
E0
E0
E0
E0
E0
E0
E0
E0
00
00
00
00
E0
E0
E0
ENDCHAR
STARTCHAR uni1ECC
ENCODING 7884
SWIDTH 456 0
DWIDTH 15 0
BBX 12 26 1 -7
BITMAP
1FC0
1FC0
E030
E030
E030
E030
E030
E030
E030
E030
E030
E030
E030
E030
E030
E030
FFF0
1FC0
1FC0
0000
0000
0000
0000
0700
0700
0700
ENDCHAR
STARTCHAR uni1ECD
ENCODING 7885
SWIDTH 373 0
DWIDTH 12 0
BBX 10 21 1 -7
BITMAP
3E00
3E00
E1C0
E1C0
E1C0
E1C0
E1C0
E1C0
E1C0
E1C0
E1C0
FFC0
3E00
3E00
0000
0000
0000
0000
0C00
0C00
0C00
ENDCHAR
STARTCHAR uni1ECE
ENCODING 7886
SWIDTH 456 0
DWIDTH 15 0
BBX 12 29 1 0
BITMAP
1F00
1F00
1FC0
01C0
01C0
0700
0700
0000
0000
0000
1FC0
1FC0
E030
E030
E030
E030
E030
E030
E030
E030
E030
E030
E030
E030
E030
E030
FFF0
1FC0
1FC0
ENDCHAR
STARTCHAR uni1ECF
ENCODING 7887
SWIDTH 373 0
DWIDTH 12 0
BBX 10 24 1 0
BITMAP
7C00
7C00
7F80
0380
0380
0C00
0C00
0000
0000
0000
3E00
3E00
E1C0
E1C0
E1C0
E1C0
E1C0
E1C0
E1C0
E1C0
E1C0
FFC0
3E00
3E00
ENDCHAR
STARTCHAR uni1ED0
ENCODING 7888
SWIDTH 456 0
DWIDTH 15 0
BBX 17 27 1 0
BITMAP
070380
070380
070380
19CE00
19CE00
000000
000000
000000
1FC000
1FC000
E03000
E03000
E03000
E03000
E03000
E03000
E03000
E03000
E03000
E03000
E03000
E03000
E03000
E03000
FFF000
1FC000
1FC000
ENDCHAR
STARTCHAR uni1ED1
ENCODING 7889
SWIDTH 373 0
DWIDTH 12 0
BBX 16 22 1 0
BITMAP
0C07
0C07
0C07
7318
7318
0000
0000
0000
3E00
3E00
E1C0
E1C0
E1C0
E1C0
E1C0
E1C0
E1C0
E1C0
E1C0
FFC0
3E00
3E00
ENDCHAR
STARTCHAR uni1ED2
ENCODING 7890
SWIDTH 456 0
DWIDTH 15 0
BBX 16 27 -3 0
BITMAP
C070
C070
C070
319C
319C
0000
0000
0000
01FC
01FC
0E03
0E03
0E03
0E03
0E03
0E03
0E03
0E03
0E03
0E03
0E03
0E03
0E03
0E03
0FFF
01FC
01FC
ENDCHAR
STARTCHAR uni1ED3
ENCODING 7891
SWIDTH 373 0
DWIDTH 12 0
BBX 16 22 -5 0
BITMAP
E030
E030
E030
19CE
19CE
0000
0000
0000
00F8
00F8
0387
0387
0387
0387
0387
0387
0387
0387
0387
03FF
00F8
00F8
ENDCHAR
STARTCHAR uni1ED4
ENCODING 7892
SWIDTH 456 0
DWIDTH 15 0
BBX 17 29 1 0
BITMAP
003E00
003E00
073F80
070380
070380
19CE00
19CE00
000000
000000
000000
1FC000
1FC000
E03000
E03000
E03000
E03000
E03000
E03000
E03000
E03000
E03000
E03000
E03000
E03000
E03000
E03000
FFF000
1FC000
1FC000
ENDCHAR
STARTCHAR uni1ED5
ENCODING 7893
SWIDTH 373 0
DWIDTH 12 0
BBX 16 24 1 0
BITMAP
00F8
00F8
0CFF
0C07
0C07
7318
7318
0000
0000
0000
3E00
3E00
E1C0
E1C0
E1C0
E1C0
E1C0
E1C0
E1C0
E1C0
E1C0
FFC0
3E00
3E00
ENDCHAR
STARTCHAR uni1ED6
ENCODING 7894
SWIDTH 456 0
DWIDTH 15 0
BBX 12 31 1 0
BITMAP
1FC0
1FC0
0000
0000
0700
0700
0700
19C0
19C0
0000
0000
0000
1FC0
1FC0
E030
E030
E030
E030
E030
E030
E030
E030
E030
E030
E030
E030
E030
E030
FFF0
1FC0
1FC0
ENDCHAR
STARTCHAR uni1ED7
ENCODING 7895
SWIDTH 373 0
DWIDTH 12 0
BBX 10 26 1 0
BITMAP
7F80
7F80
0000
0000
0C00
0C00
0C00
7380
7380
0000
0000
0000
3E00
3E00
E1C0
E1C0
E1C0
E1C0
E1C0
E1C0
E1C0
E1C0
E1C0
FFC0
3E00
3E00
ENDCHAR
STARTCHAR uni1ED8
ENCODING 7896
SWIDTH 456 0
DWIDTH 15 0
BBX 12 34 1 -7
BITMAP
0700
0700
0700
19C0
19C0
0000
0000
0000
1FC0
1FC0
E030
E030
E030
E030
E030
E030
E030
E030
E030
E030
E030
E030
E030
E030
FFF0
1FC0
1FC0
0000
0000
0000
0000
0700
0700
0700
ENDCHAR
STARTCHAR uni1ED9
ENCODING 7897
SWIDTH 373 0
DWIDTH 12 0
BBX 10 29 1 -7
BITMAP
0C00
0C00
0C00
7380
7380
0000
0000
0000
3E00
3E00
E1C0
E1C0
E1C0
E1C0
E1C0
E1C0
E1C0
E1C0
E1C0
FFC0
3E00
3E00
0000
0000
0000
0000
0C00
0C00
0C00
ENDCHAR
STARTCHAR uni1EDA
ENCODING 7898
SWIDTH 547 0
DWIDTH 18 0
BBX 17 27 1 0
BITMAP
038000
038000
038000
0E0000
0E0000
000380
000380
000380
1FCE00
1FCE00
E03000
E03000
E03000
E03000
E03000
E03000
E03000
E03000
E03000
E03000
E03000
E03000
E03000
E03000
FFF000
1FC000
1FC000
ENDCHAR
STARTCHAR uni1EDB
ENCODING 7899
SWIDTH 473 0
DWIDTH 15 0
BBX 15 22 1 0
BITMAP
0700
0700
0700
1800
1800
000E
000E
000E
1F30
1F30
E1C0
E1C0
E1C0
E1C0
E1C0
E1C0
E1C0
E1C0
E1C0
FFC0
1F00
1F00
ENDCHAR
STARTCHAR uni1EDC
ENCODING 7900
SWIDTH 547 0
DWIDTH 18 0
BBX 17 27 1 0
BITMAP
0E0000
0E0000
0E0000
038000
038000
000380
000380
000380
1FCE00
1FCE00
E03000
E03000
E03000
E03000
E03000
E03000
E03000
E03000
E03000
E03000
E03000
E03000
E03000
E03000
FFF000
1FC000
1FC000
ENDCHAR
STARTCHAR uni1EDD
ENCODING 7901
SWIDTH 473 0
DWIDTH 15 0
BBX 15 22 1 0
BITMAP
1800
1800
1800
0700
0700
000E
000E
000E
1F30
1F30
E1C0
E1C0
E1C0
E1C0
E1C0
E1C0
E1C0
E1C0
E1C0
FFC0
1F00
1F00
ENDCHAR
STARTCHAR uni1EDE
ENCODING 7902
SWIDTH 547 0
DWIDTH 18 0
BBX 17 29 1 0
BITMAP
1F0000
1F0000
1FC000
01C000
01C000
070000
070000
000380
000380
000380
1FCE00
1FCE00
E03000
E03000
E03000
E03000
E03000
E03000
E03000
E03000
E03000
E03000
E03000
E03000
E03000
E03000
FFF000
1FC000
1FC000
ENDCHAR
STARTCHAR uni1EDF
ENCODING 7903
SWIDTH 473 0
DWIDTH 15 0
BBX 15 24 1 0
BITMAP
7C00
7C00
7F80
0380
0380
0C00
0C00
000E
000E
000E
1F30
1F30
E1C0
E1C0
E1C0
E1C0
E1C0
E1C0
E1C0
E1C0
E1C0
FFC0
1F00
1F00
ENDCHAR
STARTCHAR uni1EE0
ENCODING 7904
SWIDTH 547 0
DWIDTH 18 0
BBX 17 27 1 0
BITMAP
0E6000
0E6000
0E6000
338000
338000
000380
000380
000380
1FCE00
1FCE00
E03000
E03000
E03000
E03000
E03000
E03000
E03000
E03000
E03000
E03000
E03000
E03000
E03000
E03000
FFF000
1FC000
1FC000
ENDCHAR
STARTCHAR uni1EE1
ENCODING 7905
SWIDTH 473 0
DWIDTH 15 0
BBX 15 22 1 0
BITMAP
19C0
19C0
19C0
E700
E700
000E
000E
000E
1F30
1F30
E1C0
E1C0
E1C0
E1C0
E1C0
E1C0
E1C0
E1C0
E1C0
FFC0
1F00
1F00
ENDCHAR
STARTCHAR uni1EE2
ENCODING 7906
SWIDTH 547 0
DWIDTH 18 0
BBX 17 29 1 -7
BITMAP
000380
000380
000380
1FCE00
1FCE00
E03000
E03000
E03000
E03000
E03000
E03000
E03000
E03000
E03000
E03000
E03000
E03000
E03000
E03000
FFF000
1FC000
1FC000
000000
000000
000000
000000
070000
070000
070000
ENDCHAR
STARTCHAR uni1EE3
ENCODING 7907
SWIDTH 473 0
DWIDTH 15 0
BBX 15 24 1 -7
BITMAP
000E
000E
000E
1F30
1F30
E1C0
E1C0
E1C0
E1C0
E1C0
E1C0
E1C0
E1C0
E1C0
FFC0
1F00
1F00
0000
0000
0000
0000
0C00
0C00
0C00
ENDCHAR
STARTCHAR uni1EE4
ENCODING 7908
SWIDTH 456 0
DWIDTH 15 0
BBX 12 26 1 -7
BITMAP
E030
E030
E030
E030
E030
E030
E030
E030
E030
E030
E030
E030
E030
E030
E030
E030
FFF0
1FC0
1FC0
0000
0000
0000
0000
0700
0700
0700
ENDCHAR
STARTCHAR uni1EE5
ENCODING 7909
SWIDTH 378 0
DWIDTH 12 0
BBX 10 21 1 -7
BITMAP
E1C0
E1C0
E1C0
E1C0
E1C0
E1C0
E1C0
E1C0
E1C0
E1C0
E1C0
FFC0
3FC0
3FC0
0000
0000
0000
0000
0C00
0C00
0C00
ENDCHAR
STARTCHAR uni1EE6
ENCODING 7910
SWIDTH 456 0
DWIDTH 15 0
BBX 12 29 1 0
BITMAP
1F00
1F00
1FC0
01C0
01C0
0700
0700
0000
0000
0000
E030
E030
E030
E030
E030
E030
E030
E030
E030
E030
E030
E030
E030
E030
E030
E030
FFF0
1FC0
1FC0
ENDCHAR
STARTCHAR uni1EE7
ENCODING 7911
SWIDTH 378 0
DWIDTH 12 0
BBX 10 24 1 0
BITMAP
7C00
7C00
7F80
0380
0380
0C00
0C00
0000
0000
0000
E1C0
E1C0
E1C0
E1C0
E1C0
E1C0
E1C0
E1C0
E1C0
E1C0
E1C0
FFC0
3FC0
3FC0
ENDCHAR
STARTCHAR uni1EE8
ENCODING 7912
SWIDTH 544 0
DWIDTH 17 0
BBX 17 27 1 0
BITMAP
038000
038000
038000
0C0000
0C0000
000380
000380
000380
E03E00
E03E00
E03000
E03000
E03000
E03000
E03000
E03000
E03000
E03000
E03000
E03000
E03000
E03000
E03000
E03000
FFF000
1FC000
1FC000
ENDCHAR
STARTCHAR uni1EE9
ENCODING 7913
SWIDTH 475 0
DWIDTH 15 0
BBX 15 22 1 0
BITMAP
0700
0700
0700
1800
1800
000E
000E
000E
E1F0
E1F0
E1C0
E1C0
E1C0
E1C0
E1C0
E1C0
E1C0
E1C0
E1C0
FFC0
1FC0
1FC0
ENDCHAR
STARTCHAR uni1EEA
ENCODING 7914
SWIDTH 544 0
DWIDTH 17 0
BBX 17 27 1 0
BITMAP
0C0000
0C0000
0C0000
038000
038000
000380
000380
000380
E03E00
E03E00
E03000
E03000
E03000
E03000
E03000
E03000
E03000
E03000
E03000
E03000
E03000
E03000
E03000
E03000
FFF000
1FC000
1FC000
ENDCHAR
STARTCHAR uni1EEB
ENCODING 7915
SWIDTH 475 0
DWIDTH 15 0
BBX 15 22 1 0
BITMAP
1800
1800
1800
0700
0700
000E
000E
000E
E1F0
E1F0
E1C0
E1C0
E1C0
E1C0
E1C0
E1C0
E1C0
E1C0
E1C0
FFC0
1FC0
1FC0
ENDCHAR
STARTCHAR uni1EEC
ENCODING 7916
SWIDTH 544 0
DWIDTH 17 0
BBX 17 29 1 0
BITMAP
1F0000
1F0000
1FC000
01C000
01C000
070000
070000
000380
000380
000380
E03E00
E03E00
E03000
E03000
E03000
E03000
E03000
E03000
E03000
E03000
E03000
E03000
E03000
E03000
E03000
E03000
FFF000
1FC000
1FC000
ENDCHAR
STARTCHAR uni1EED
ENCODING 7917
SWIDTH 475 0
DWIDTH 15 0
BBX 15 24 1 0
BITMAP
7C00
7C00
7F80
0380
0380
0C00
0C00
000E
000E
000E
E1F0
E1F0
E1C0
E1C0
E1C0
E1C0
E1C0
E1C0
E1C0
E1C0
E1C0
FFC0
1FC0
1FC0
ENDCHAR
STARTCHAR uni1EEE
ENCODING 7918
SWIDTH 544 0
DWIDTH 17 0
BBX 17 27 1 0
BITMAP
0C6000
0C6000
0C6000
738000
738000
000380
000380
000380
E03E00
E03E00
E03000
E03000
E03000
E03000
E03000
E03000
E03000
E03000
E03000
E03000
E03000
E03000
E03000
E03000
FFF000
1FC000
1FC000
ENDCHAR
STARTCHAR uni1EEF
ENCODING 7919
SWIDTH 475 0
DWIDTH 15 0
BBX 15 22 1 0
BITMAP
19C0
19C0
19C0
E700
E700
000E
000E
000E
E1F0
E1F0
E1C0
E1C0
E1C0
E1C0
E1C0
E1C0
E1C0
E1C0
E1C0
FFC0
1FC0
1FC0
ENDCHAR
STARTCHAR uni1EF0
ENCODING 7920
SWIDTH 544 0
DWIDTH 17 0
BBX 17 29 1 -7
BITMAP
000380
000380
000380
E03E00
E03E00
E03000
E03000
E03000
E03000
E03000
E03000
E03000
E03000
E03000
E03000
E03000
E03000
E03000
E03000
FFF000
1FC000
1FC000
000000
000000
000000
000000
070000
070000
070000
ENDCHAR
STARTCHAR uni1EF1
ENCODING 7921
SWIDTH 475 0
DWIDTH 15 0
BBX 15 24 1 -7
BITMAP
000E
000E
000E
E1F0
E1F0
E1C0
E1C0
E1C0
E1C0
E1C0
E1C0
E1C0
E1C0
E1C0
FFC0
1FC0
1FC0
0000
0000
0000
0000
0C00
0C00
0C00
ENDCHAR
STARTCHAR Ygrave
ENCODING 7922
SWIDTH 456 0
DWIDTH 15 0
BBX 12 27 1 0
BITMAP
0C00
0C00
0C00
0380
0380
0000
0000
0000
E030
E030
19C0
19C0
19C0
19C0
19C0
0700
0700
0700
0700
0700
0700
0700
0700
0700
0700
0700
0700
ENDCHAR
STARTCHAR ygrave
ENCODING 7923
SWIDTH 378 0
DWIDTH 12 0
BBX 10 29 1 -7
BITMAP
1800
1800
1800
0700
0700
0000
0000
0000
E1C0
E1C0
E1C0
E1C0
E1C0
E1C0
E1C0
E1C0
E1C0
E1C0
E1C0
FFC0
3FC0
3FC0
01C0
01C0
E1C0
E1C0
E1C0
3E00
3E00
ENDCHAR
STARTCHAR endash
ENCODING 8211
SWIDTH 427 0
DWIDTH 14 0
BBX 12 3 1 7
BITMAP
FFF0
FFF0
FFF0
ENDCHAR
STARTCHAR emdash
ENCODING 8212
SWIDTH 575 0
DWIDTH 18 0
BBX 17 3 1 7
BITMAP
FFFF80
FFFF80
FFFF80
ENDCHAR
STARTCHAR quoteleft
ENCODING 8216
SWIDTH 216 0
DWIDTH 7 0
BBX 5 8 1 14
BITMAP
E0
E0
E0
E0
E0
38
38
38
ENDCHAR
STARTCHAR quoteright
ENCODING 8217
SWIDTH 216 0
DWIDTH 7 0
BBX 5 8 1 14
BITMAP
38
38
38
38
38
E0
E0
E0
ENDCHAR
STARTCHAR quotesinglbase
ENCODING 8218
SWIDTH 216 0
DWIDTH 7 0
BBX 5 7 1 -2
BITMAP
38
38
38
38
38
E0
E0
ENDCHAR
STARTCHAR quotedblleft
ENCODING 8220
SWIDTH 432 0
DWIDTH 14 0
BBX 12 8 1 14
BITMAP
E180
E180
E180
E180
E180
3870
3870
3870
ENDCHAR
STARTCHAR quotedblright
ENCODING 8221
SWIDTH 432 0
DWIDTH 14 0
BBX 12 8 1 14
BITMAP
3870
3870
3870
3870
3870
E180
E180
E180
ENDCHAR
STARTCHAR quotedblbase
ENCODING 8222
SWIDTH 432 0
DWIDTH 14 0
BBX 12 7 1 -2
BITMAP
3870
3870
3870
3870
3870
E180
E180
ENDCHAR
STARTCHAR dagger
ENCODING 8224
SWIDTH 456 0
DWIDTH 15 0
BBX 12 19 1 0
BITMAP
0700
0700
0700
0700
0700
FFF0
FFF0
0700
0700
0700
0700
0700
0700
0700
0700
0700
0700
0700
0700
ENDCHAR
STARTCHAR daggerdbl
ENCODING 8225
SWIDTH 456 0
DWIDTH 15 0
BBX 12 19 1 0
BITMAP
0700
0700
0700
0700
0700
FFF0
FFF0
0700
0700
0700
0700
0700
FFF0
FFF0
0700
0700
0700
0700
0700
ENDCHAR
STARTCHAR bullet
ENCODING 8226
SWIDTH 382 0
DWIDTH 12 0
BBX 10 9 1 5
BITMAP
1F00
1F00
FFC0
FFC0
FFC0
FFC0
FFC0
1F00
1F00
ENDCHAR
STARTCHAR ellipsis
ENCODING 8230
SWIDTH 746 0
DWIDTH 24 0
BBX 21 3 1 0
BITMAP
E07018
E07018
E07018
ENDCHAR
STARTCHAR perthousand
ENCODING 8240
SWIDTH 826 0
DWIDTH 26 0
BBX 24 19 1 0
BITMAP
180E00
180E00
E70E00
E70E00
E70E00
E73000
E73000
183000
183000
19F39C
01C39C
01C39C
01CE63
01CE63
070E63
070E63
070FFF
07039C
07039C
ENDCHAR
STARTCHAR guilsinglleft
ENCODING 8249
SWIDTH 279 0
DWIDTH 9 0
BBX 7 12 1 2
BITMAP
06
06
38
38
F8
C0
C0
38
38
06
06
06
ENDCHAR
STARTCHAR guilsinglright
ENCODING 8250
SWIDTH 279 0
DWIDTH 9 0
BBX 7 12 1 2
BITMAP
C0
C0
38
38
3E
06
06
38
38
C0
C0
C0
ENDCHAR
STARTCHAR fraction
ENCODING 8260
SWIDTH 148 0
DWIDTH 5 0
BBX 9 19 -2 0
BITMAP
0180
0180
0180
0180
0180
0E00
0E00
0E00
0E00
3E00
3000
3000
3000
3000
C000
C000
C000
C000
C000
ENDCHAR
STARTCHAR zerosuperior
ENCODING 8304
SWIDTH 322 0
DWIDTH 10 0
BBX 8 11 1 9
BITMAP
3C
FF
C3
C3
C3
C3
C3
C3
C3
3C
3C
ENDCHAR
STARTCHAR foursuperior
ENCODING 8308
SWIDTH 381 0
DWIDTH 12 0
BBX 10 11 1 9
BITMAP
0300
0F00
0F00
3F00
3300
3300
FFC0
FFC0
0300
0300
0300
ENDCHAR
STARTCHAR fivesuperior
ENCODING 8309
SWIDTH 322 0
DWIDTH 10 0
BBX 8 11 1 9
BITMAP
FF
FF
C0
FC
FC
03
03
C3
C3
3C
3C
ENDCHAR
STARTCHAR sixsuperior
ENCODING 8310
SWIDTH 322 0
DWIDTH 10 0
BBX 8 11 1 9
BITMAP
3C
FC
C0
FC
FC
C3
C3
C3
C3
3C
3C
ENDCHAR
STARTCHAR sevensuperior
ENCODING 8311
SWIDTH 322 0
DWIDTH 10 0
BBX 8 11 1 9
BITMAP
FF
FF
03
0F
0C
30
30
30
30
30
30
ENDCHAR
STARTCHAR eightsuperior
ENCODING 8312
SWIDTH 322 0
DWIDTH 10 0
BBX 8 11 1 9
BITMAP
3C
FF
C3
C3
3C
3C
C3
C3
C3
3C
3C
ENDCHAR
STARTCHAR ninesuperior
ENCODING 8313
SWIDTH 322 0
DWIDTH 10 0
BBX 8 11 1 9
BITMAP
3C
FF
C3
C3
C3
3F
3F
C3
C3
3C
3C
ENDCHAR
STARTCHAR zeroinferior
ENCODING 8320
SWIDTH 322 0
DWIDTH 10 0
BBX 8 11 1 -1
BITMAP
3C
FF
C3
C3
C3
C3
C3
C3
C3
3C
3C
ENDCHAR
STARTCHAR oneinferior
ENCODING 8321
SWIDTH 203 0
DWIDTH 7 0
BBX 4 11 1 -1
BITMAP
30
F0
F0
F0
30
30
30
30
30
30
30
ENDCHAR
STARTCHAR twoinferior
ENCODING 8322
SWIDTH 322 0
DWIDTH 10 0
BBX 8 11 1 -1
BITMAP
3C
FF
C3
CF
0C
30
30
C0
C0
FF
FF
ENDCHAR
STARTCHAR threeinferior
ENCODING 8323
SWIDTH 322 0
DWIDTH 10 0
BBX 8 11 1 -1
BITMAP
3C
FF
C3
C3
0C
0C
03
C3
C3
3C
3C
ENDCHAR
STARTCHAR fourinferior
ENCODING 8324
SWIDTH 381 0
DWIDTH 12 0
BBX 10 11 1 -1
BITMAP
0300
0F00
0F00
3F00
3300
3300
FFC0
FFC0
0300
0300
0300
ENDCHAR
STARTCHAR fiveinferior
ENCODING 8325
SWIDTH 322 0
DWIDTH 10 0
BBX 8 11 1 -1
BITMAP
FF
FF
C0
FC
FC
03
03
C3
C3
3C
3C
ENDCHAR
STARTCHAR sixinferior
ENCODING 8326
SWIDTH 322 0
DWIDTH 10 0
BBX 8 11 1 -1
BITMAP
3C
FC
C0
FC
FC
C3
C3
C3
C3
3C
3C
ENDCHAR
STARTCHAR seveninferior
ENCODING 8327
SWIDTH 322 0
DWIDTH 10 0
BBX 8 11 1 -1
BITMAP
FF
FF
03
0F
0C
30
30
30
30
30
30
ENDCHAR
STARTCHAR eightinferior
ENCODING 8328
SWIDTH 322 0
DWIDTH 10 0
BBX 8 11 1 -1
BITMAP
3C
FF
C3
C3
3C
3C
C3
C3
C3
3C
3C
ENDCHAR
STARTCHAR nineinferior
ENCODING 8329
SWIDTH 322 0
DWIDTH 10 0
BBX 8 11 1 -1
BITMAP
3C
FF
C3
C3
C3
3F
3F
C3
C3
3C
3C
ENDCHAR
STARTCHAR dong
ENCODING 8363
SWIDTH 438 0
DWIDTH 14 0
BBX 13 21 1 -2
BITMAP
00C0
00C0
07F8
07F8
07F8
00C0
00C0
1FC0
1FC0
FFC0
E0C0
E0C0
E0C0
E0C0
1FC0
1FC0
1FC0
0000
0000
7FC0
7FC0
ENDCHAR
STARTCHAR Euro
ENCODING 8364
SWIDTH 442 0
DWIDTH 14 0
BBX 12 19 1 0
BITMAP
07F0
07F0
3800
3800
3800
FFC0
FFC0
3800
3800
FE00
FE00
FE00
3800
3800
3800
3800
3FF0
07F0
07F0
ENDCHAR
STARTCHAR uni2117
ENCODING 8471
SWIDTH 604 0
DWIDTH 19 0
BBX 17 19 1 0
BITMAP
1FFE00
1FFE00
E00380
E00380
E00380
E7C380
E7C380
E73380
E73380
E7F380
E7C380
E7C380
E70380
E70380
E00380
E00380
FFFF80
1FFE00
1FFE00
ENDCHAR
STARTCHAR trademark
ENCODING 8482
SWIDTH 752 0
DWIDTH 24 0
BBX 22 10 1 9
BITMAP
FF3E7C
FF3E7C
18339C
18339C
18339C
18339C
18339C
18339C
18339C
18339C
ENDCHAR
STARTCHAR uni2126
ENCODING 8486
SWIDTH 456 0
DWIDTH 15 0
BBX 12 19 1 0
BITMAP
1FC0
1FC0
E030
E030
E030
E030
E030
E030
E030
E030
E030
E030
19C0
19C0
19C0
19C0
F9F0
F9F0
F9F0
ENDCHAR
STARTCHAR onethird
ENCODING 8531
SWIDTH 723 0
DWIDTH 23 0
BBX 21 21 1 -1
BITMAP
300000
F00C00
F00C00
F00C00
300C00
300C00
307000
307000
307000
307000
31F1E0
01C7F8
01C618
01C618
01C060
060060
060018
060618
060618
0601E0
0001E0
ENDCHAR
STARTCHAR twothirds
ENCODING 8532
SWIDTH 792 0
DWIDTH 25 0
BBX 23 21 1 -1
BITMAP
3C0000
FF0380
C30380
CF0380
0C0380
300380
300C00
C00C00
C00C00
FF0C00
FF7C78
0071FE
007186
007186
007018
018018
018006
018186
018186
018078
000078
ENDCHAR
STARTCHAR oneeighth
ENCODING 8539
SWIDTH 723 0
DWIDTH 23 0
BBX 21 21 1 -1
BITMAP
300000
F00C00
F00C00
F00C00
300C00
300C00
307000
307000
307000
307000
31F1E0
01C7F8
01C618
01C618
01C1E0
0601E0
060618
060618
060618
0601E0
0001E0
ENDCHAR
STARTCHAR threeeighths
ENCODING 8540
SWIDTH 792 0
DWIDTH 25 0
BBX 23 21 1 -1
BITMAP
3C0000
FF0380
C30380
C30380
0C0380
0C0380
030C00
C30C00
C30C00
3C0C00
3C7C78
0071FE
007186
007186
007078
018078
018186
018186
018186
018078
000078
ENDCHAR
STARTCHAR fiveeighths
ENCODING 8541
SWIDTH 792 0
DWIDTH 25 0
BBX 23 21 1 -1
BITMAP
FF0000
FF0380
C00380
FC0380
FC0380
030380
030C00
C30C00
C30C00
3C0C00
3C7C78
0071FE
007186
007186
007078
018078
018186
018186
018186
018078
000078
ENDCHAR
STARTCHAR seveneighths
ENCODING 8542
SWIDTH 742 0
DWIDTH 24 0
BBX 21 21 1 -1
BITMAP
FF0000
FF0E00
030E00
0F0E00
0C0E00
300E00
303800
303800
303800
303800
30F8F0
00C3F8
00C318
00C318
00C0F0
0700F0
070318
070318
070318
0700F0
0000F0
ENDCHAR
STARTCHAR partialdiff
ENCODING 8706
SWIDTH 382 0
DWIDTH 12 0
BBX 10 19 1 0
BITMAP
1F00
1F00
E1C0
E1C0
E1C0
01C0
01C0
1FC0
1FC0
FFC0
E1C0
E1C0
E1C0
E1C0
E700
E700
FF00
1800
1800
ENDCHAR
STARTCHAR uni2206
ENCODING 8710
SWIDTH 530 0
DWIDTH 17 0
BBX 15 19 1 0
BITMAP
07C0
07C0
07C0
07C0
07C0
1830
1830
1830
1830
1830
1830
1830
E00E
E00E
E00E
E00E
FFFE
FFFE
FFFE
ENDCHAR
STARTCHAR product
ENCODING 8719
SWIDTH 456 0
DWIDTH 15 0
BBX 12 24 1 -5
BITMAP
FFF0
FFF0
E030
E030
E030
E030
E030
E030
E030
E030
E030
E030
E030
E030
E030
E030
E030
E030
E030
E030
E030
E030
E030
E030
ENDCHAR
STARTCHAR summation
ENCODING 8721
SWIDTH 456 0
DWIDTH 15 0
BBX 12 21 1 -2
BITMAP
FFF0
FFF0
E000
E000
E000
1800
1800
0700
0700
07C0
01C0
01C0
0700
0700
1800
1800
F800
E000
E000
FFF0
FFF0
ENDCHAR
STARTCHAR minus
ENCODING 8722
SWIDTH 456 0
DWIDTH 15 0
BBX 12 3 1 7
BITMAP
FFF0
FFF0
FFF0
ENDCHAR
STARTCHAR radical
ENCODING 8730
SWIDTH 604 0
DWIDTH 19 0
BBX 17 19 1 0
BITMAP
000380
000380
000380
000380
000380
000380
000380
000E00
000E00
F80E00
F80E00
F80E00
073000
073000
073000
073000
07C000
01C000
01C000
ENDCHAR
STARTCHAR infinity
ENCODING 8734
SWIDTH 604 0
DWIDTH 19 0
BBX 17 12 1 2
BITMAP
1F3E00
1F3E00
E1C380
E1C380
E1C380
E1C380
E1C380
E1C380
E1C380
1F3E00
1F3E00
1F3E00
ENDCHAR
STARTCHAR integral
ENCODING 8747
SWIDTH 308 0
DWIDTH 10 0
BBX 8 31 1 -7
BITMAP
07
07
1F
18
18
18
18
18
18
18
18
18
18
18
18
18
18
18
18
18
18
18
18
18
18
18
18
18
18
E0
E0
ENDCHAR
STARTCHAR approxequal
ENCODING 8776
SWIDTH 456 0
DWIDTH 15 0
BBX 12 15 1 2
BITMAP
1F30
1F30
1F30
E7C0
E7C0
0000
0000
0000
0000
0000
1F30
1F30
E7C0
E7C0
E7C0
ENDCHAR
STARTCHAR notequal
ENCODING 8800
SWIDTH 456 0
DWIDTH 15 0
BBX 12 17 1 0
BITMAP
01C0
01C0
01C0
01C0
01C0
FFF0
FFF0
FFF0
0700
0700
FFF0
FFF0
1800
1800
1800
1800
1800
ENDCHAR
STARTCHAR lessequal
ENCODING 8804
SWIDTH 456 0
DWIDTH 15 0
BBX 12 16 1 -2
BITMAP
01C0
01C0
0700
0700
1F00
1800
1800
0700
0700
01C0
01C0
01C0
0000
0000
FFF0
FFF0
ENDCHAR
STARTCHAR greaterequal
ENCODING 8805
SWIDTH 456 0
DWIDTH 15 0
BBX 12 16 1 -2
BITMAP
1800
1800
0700
0700
07C0
01C0
01C0
0700
0700
1800
1800
1800
0000
0000
FFF0
FFF0
ENDCHAR
STARTCHAR dotmath
ENCODING 8901
SWIDTH 160 0
DWIDTH 5 0
BBX 3 3 1 7
BITMAP
E0
E0
E0
ENDCHAR
STARTCHAR uni2579
ENCODING 9593
SWIDTH 234 0
DWIDTH 7 0
BBX 5 5 1 7
BITMAP
F8
F8
F8
F8
F8
ENDCHAR
STARTCHAR lozenge
ENCODING 9674
SWIDTH 456 0
DWIDTH 15 0
BBX 12 12 1 2
BITMAP
0700
0700
19C0
19C0
F9F0
E030
E030
19C0
19C0
0700
0700
0700
ENDCHAR
STARTCHAR musicalnote
ENCODING 9834
SWIDTH 456 0
DWIDTH 15 0
BBX 12 19 1 0
BITMAP
0700
0700
07C0
07C0
07C0
07F0
07F0
0730
0730
0730
0730
0730
0700
0700
F800
F800
F800
F800
F800
ENDCHAR
STARTCHAR fi
ENCODING 64257
SWIDTH 465 0
DWIDTH 15 0
BBX 13 19 1 0
BITMAP
0738
0738
1800
1800
1800
FF38
FF38
1838
1838
1838
1838
1838
1838
1838
1838
1838
1838
1838
1838
ENDCHAR
STARTCHAR fl
ENCODING 64258
SWIDTH 455 0
DWIDTH 15 0
BBX 12 19 1 0
BITMAP
0730
0730
1830
1830
1830
FF30
FF30
1830
1830
1830
1830
1830
1830
1830
1830
1830
1830
1830
1830
ENDCHAR
STARTCHAR .notdef
ENCODING -1
SWIDTH 420 0
DWIDTH 13 0
BBX 12 25 1 -3
BITMAP
FFE0
FFF0
FFF0
E0F0
E0F0
9F30
9F30
9F30
9F30
9F30
FCF0
FCF0
E0F0
E3F0
E3F0
E3F0
E3F0
FFF0
FFF0
E3F0
E3F0
E3F0
FFF0
FFF0
FFE0
ENDCHAR
STARTCHAR .null
ENCODING -1
SWIDTH 0 0
DWIDTH 0 0
BBX 1 1 0 0
BITMAP
00
ENDCHAR
STARTCHAR nonmarkingreturn
ENCODING -1
SWIDTH 184 0
DWIDTH 6 0
BBX 1 1 0 0
BITMAP
00
ENDCHAR
STARTCHAR gravecircumflex
ENCODING -1
SWIDTH 530 0
DWIDTH 17 0
BBX 15 5 1 17
BITMAP
E030
E030
E030
19CE
19CE
ENDCHAR
STARTCHAR brevetilde
ENCODING -1
SWIDTH 382 0
DWIDTH 12 0
BBX 10 9 1 17
BITMAP
FFC0
FFC0
0000
0000
E1C0
E1C0
E1C0
1F00
1F00
ENDCHAR
STARTCHAR breveacute
ENCODING -1
SWIDTH 382 0
DWIDTH 12 0
BBX 10 9 1 17
BITMAP
0700
0700
1800
1800
F9C0
E1C0
E1C0
1F00
1F00
ENDCHAR
STARTCHAR circumflexhook
ENCODING -1
SWIDTH 530 0
DWIDTH 17 0
BBX 15 7 1 17
BITMAP
01F0
01F0
19FE
180E
180E
E730
E730
ENDCHAR
STARTCHAR circumflexacute
ENCODING -1
SWIDTH 530 0
DWIDTH 17 0
BBX 15 5 1 17
BITMAP
180E
180E
180E
E730
E730
ENDCHAR
STARTCHAR brevehook
ENCODING -1
SWIDTH 382 0
DWIDTH 12 0
BBX 10 9 1 17
BITMAP
1F00
1F00
0700
0700
E7C0
E1C0
E1C0
1F00
1F00
ENDCHAR
STARTCHAR brevegrave
ENCODING -1
SWIDTH 382 0
DWIDTH 12 0
BBX 10 9 1 17
BITMAP
1800
1800
0700
0700
E7C0
E1C0
E1C0
1F00
1F00
ENDCHAR
ENDFONT
